<svg width="569" height="164" viewBox="0 0 569 164" fill="none" xmlns="http://www.w3.org/2000/svg">
<path d="M129.802 111.298H126.008V112.165H129.802V111.298Z" fill="white"/>
<path d="M129.802 113.515H126.008V114.381H129.802V113.515Z" fill="white"/>
<path d="M151.46 119.916C149.06 119.916 147.12 117.968 147.12 115.575C147.12 113.182 149.067 111.235 151.46 111.235V119.922V119.916Z" fill="white"/>
<path d="M151.46 119.916C153.857 119.916 155.8 117.972 155.8 115.575C155.8 113.178 153.857 111.235 151.46 111.235C149.063 111.235 147.12 113.178 147.12 115.575C147.12 117.972 149.063 119.916 151.46 119.916Z" stroke="white" stroke-width="0.5" stroke-miterlimit="10"/>
<path d="M134.482 119.916C132.082 119.916 130.141 117.968 130.141 115.575C130.141 113.182 132.088 111.235 134.482 111.235V119.922V119.916Z" fill="white"/>
<path d="M134.482 119.916C136.879 119.916 138.822 117.972 138.822 115.575C138.822 113.178 136.879 111.235 134.482 111.235C132.084 111.235 130.141 113.178 130.141 115.575C130.141 117.972 132.084 119.916 134.482 119.916Z" stroke="white" stroke-width="0.5" stroke-miterlimit="10"/>
<path d="M126.008 111.298H122.013V119.916H126.008V111.298Z" fill="white"/>
<path d="M143.577 111.298H139.582V119.916H143.577V111.298Z" fill="white"/>
<path d="M172.67 73.1228C170.097 73.8275 167.717 73.3821 165.443 73.5749C163.708 74.4923 163.383 75.9217 163.376 77.7233C163.343 86.8644 164.646 95.7528 167.963 104.309C168.189 104.901 168.236 105.559 168.402 106.356C166.022 105.22 164.998 103.132 164.007 101.118C161.056 95.0681 159.254 88.6261 157.838 82.0778C152.161 81.2135 148.903 81.9381 146.197 87.0904C143.372 92.482 139.356 96.8896 134.41 100.506C136.126 94.4963 139.729 89.3308 142.102 83.1016C133.247 84.3846 125.156 86.8178 117.258 90.0488C109.46 93.2399 102.48 97.9533 95.0272 101.862C102.859 91.7108 114.081 86.2328 125.349 79.9903C122.816 79.0994 120.682 79.0994 118.794 78.2285C116.959 77.3842 115.038 76.7194 113.549 75.2303C110.863 72.5378 110.304 69.3334 111.927 65.9296C113.914 61.7613 117.225 58.8228 120.948 56.3431C127.111 52.2413 133.938 50.6125 141.298 51.4501C146.164 52.0086 150.067 54.608 152.433 58.6766C156.469 65.6039 162.678 69.2271 169.884 71.6868C170.815 72.006 171.739 72.2852 172.65 73.0962L172.67 73.1228ZM157.831 74.9909C158.024 73.3954 157.2 72.8901 156.296 72.4381C153.497 71.022 150.765 69.473 148.411 67.3789C145.001 64.3474 141.098 62.9181 136.524 63.4632C134.59 63.6892 132.589 63.656 130.754 64.2078C129.577 64.5601 127.942 63.9618 127.104 65.451C127.623 66.0559 128.281 66.1756 128.886 66.3883C135.76 68.7617 142.907 70.3173 148.996 74.7915C151.429 76.5798 154.813 76.2208 157.825 74.9976L157.831 74.9909Z" fill="white"/>
<path d="M131.286 46.9896C119.213 49.9613 110.471 56.3035 106.336 68.157C86.7437 69.2606 67.1386 68.5359 47.5068 68.6157C49.4281 67.0734 51.7815 66.6413 53.9023 65.6906C59.8257 63.0314 66.0483 61.1699 72.1379 58.9627C77.6226 56.975 83.1936 55.1999 88.8711 53.764C92.8865 52.7468 96.8421 51.497 100.864 50.4998C106.289 49.1569 111.747 48.0599 117.278 47.2555C121.094 46.7037 124.904 46.1785 128.773 46.3514C129.404 46.378 130.069 46.1918 131.286 46.9896Z" fill="white"/>
<path d="M87.0894 73.9741C79.0785 78.6344 73.9595 85.2891 72.5568 94.6828H20.0304C19.9972 94.5764 19.9573 94.47 19.9241 94.357C23.7866 92.7482 27.6292 91.0862 31.5116 89.5305C39.7685 86.2398 48.0786 83.0952 56.5416 80.3695C62.8772 78.3286 69.246 76.4073 75.801 75.091C79.4774 74.353 83.1272 73.7281 87.0961 73.9674L87.0894 73.9741Z" fill="white"/>
<path d="M72.7362 100.486C74.0858 107.573 76.7716 113.796 82.3759 118.928H26.0735C40.666 110.718 56.5017 105.712 72.7362 100.486Z" fill="white"/>
<path d="M174.265 76.5668C178.5 74.5524 189.503 78.0958 195.293 85.5217C201.057 92.9077 201.476 103.737 195.858 111.629C189.908 119.992 179.837 123.456 171.42 120.743C160.172 117.113 153.098 105.233 154.348 97.5613C155.212 99.3297 155.511 100.958 156.169 102.428C158.869 108.431 163.389 112.732 169.246 115.132C179.617 119.374 189.37 115.465 193.365 104.136C196.37 95.6068 192.135 87.1239 185.68 81.9184C182.602 79.4387 179.225 77.4642 175.15 77.0321C174.857 76.9989 174.591 76.7463 174.265 76.5734V76.5668Z" fill="white"/>
<path d="M121.706 105.074C118.475 114.321 110.59 120.404 99.7207 120.677C89.8949 120.923 82.0967 115.298 78.653 105.04C75.349 95.208 79.0253 85.1495 87.4617 79.6249C95.4527 74.3996 106.901 74.7187 110.444 78.3684C107.938 77.8233 105.697 77.8366 103.457 77.8964C98.431 78.0294 94.0699 79.8842 90.1741 82.9822C87.0429 85.4819 84.6629 88.5067 83.32 92.3227C80.9799 98.9708 83.1205 104.549 87.4817 109.541C93.6045 116.548 104.833 117.167 112.405 112.932C115.683 111.097 118.681 108.896 120.901 105.785C121.068 105.552 121.347 105.386 121.713 105.074H121.706Z" fill="white"/>
<path d="M143.325 41.4516C148.045 38.9918 152.54 38.8056 157.047 39.1114C159.633 39.2909 161.501 40.933 162.552 43.2665C163.549 45.4869 163.163 47.5611 161.481 49.4226C160.477 50.5328 159.713 51.8491 158.789 53.0258C157.3 54.9272 155.717 55.007 154.035 53.2585C153.497 52.7001 153.065 52.0286 152.633 51.3771C150.16 47.6409 148.158 43.4925 143.332 41.4449L143.325 41.4516Z" fill="white"/>
<path d="M174.654 74.5488C172.032 75.2669 169.607 74.813 167.29 75.0094C165.522 75.9443 165.19 77.4009 165.183 79.2368C165.149 88.5519 166.477 97.6096 169.857 106.329C170.088 106.931 170.135 107.602 170.304 108.415C167.879 107.257 166.836 105.129 165.826 103.077C162.819 96.9118 160.983 90.3472 159.54 83.6742C153.754 82.7935 150.435 83.5319 147.677 88.7822C144.798 94.2765 140.706 98.768 135.666 102.453C137.414 96.3292 141.086 91.0653 143.504 84.7175C134.48 86.025 126.236 88.5045 118.187 91.797C110.241 95.0488 103.127 99.852 95.533 103.835C103.513 93.4906 114.949 87.9083 126.432 81.547C123.851 80.6392 121.676 80.6392 119.752 79.7517C117.882 78.8913 115.925 78.2138 114.407 76.6963C111.67 73.9526 111.101 70.6872 112.754 67.2186C114.78 62.9709 118.153 59.9765 121.947 57.4496C128.227 53.2697 135.185 51.6099 142.684 52.4635C147.643 53.0326 151.62 55.6814 154.032 59.8275C158.144 66.8867 164.472 70.5788 171.815 73.0854C172.764 73.4106 173.705 73.6952 174.633 74.5217L174.654 74.5488ZM159.533 76.4524C159.729 74.8265 158.889 74.3117 157.968 73.851C155.116 72.408 152.331 70.8295 149.933 68.6955C146.458 65.6063 142.481 64.1497 137.82 64.7052C135.849 64.9356 133.81 64.9017 131.94 65.464C130.741 65.8231 129.074 65.2133 128.221 66.7308C128.749 67.3473 129.42 67.4693 130.036 67.6861C137.041 70.1046 144.324 71.6899 150.529 76.2492C153.009 78.0716 156.457 77.7057 159.526 76.4592L159.533 76.4524Z" fill="#102C57"/>
<path d="M132.482 47.9174C120.179 50.9457 111.27 57.4087 107.057 69.4878C87.0917 70.6124 67.1134 69.874 47.1079 69.9553C49.0658 68.3836 51.464 67.9432 53.6251 66.9744C59.6613 64.2646 66.0023 62.3677 72.2079 60.1185C77.797 58.0929 83.4741 56.2841 89.2596 54.8208C93.3515 53.7842 97.3824 52.5106 101.481 51.4944C107.009 50.1259 112.571 49.0081 118.208 48.1884C122.096 47.6261 125.978 47.0909 129.921 47.2671C130.565 47.2942 131.242 47.1045 132.482 47.9174Z" fill="#102C57"/>
<path d="M87.444 75.4156C79.2806 80.1646 74.0641 86.946 72.6347 96.5186H19.1084C19.0745 96.4102 19.0339 96.3018 19 96.1866C22.9361 94.5472 26.8518 92.8535 30.8082 91.2683C39.2223 87.9148 47.6905 84.7104 56.3146 81.9328C62.7708 79.853 69.2609 77.8951 75.9407 76.5538C79.6871 75.8018 83.4064 75.165 87.4508 75.4089L87.444 75.4156Z" fill="#102C57"/>
<path d="M72.8176 102.433C74.1928 109.654 76.9298 115.995 82.6408 121.225H25.2665C40.1368 112.859 56.2739 107.757 72.8176 102.433Z" fill="#102C57"/>
<path d="M176.28 78.0578C180.595 76.0051 191.807 79.616 197.708 87.1833C203.581 94.7099 204.008 105.746 198.284 113.787C192.22 122.31 181.957 125.839 173.38 123.075C161.917 119.376 154.709 107.27 155.983 99.4521C156.864 101.254 157.168 102.914 157.839 104.411C160.59 110.529 165.196 114.912 171.165 117.357C181.733 121.68 191.672 117.696 195.743 106.152C198.805 97.4604 194.49 88.8159 187.912 83.5114C184.775 80.9845 181.334 78.9724 177.181 78.5321C176.883 78.4982 176.612 78.2408 176.28 78.0646V78.0578Z" fill="#102C57"/>
<path d="M122.719 107.107C119.427 116.531 111.392 122.73 100.316 123.007C90.3029 123.258 82.3562 117.527 78.847 107.073C75.48 97.0538 79.2264 86.8038 87.8234 81.1741C95.9665 75.8492 107.632 76.1744 111.243 79.8937C108.689 79.3381 106.406 79.3517 104.123 79.4127C99.0015 79.5482 94.5573 81.4383 90.5874 84.5952C87.3966 87.1425 84.9712 90.225 83.6028 94.1136C81.2181 100.888 83.3995 106.572 87.8437 111.66C94.0831 118.8 105.525 119.43 113.242 115.115C116.582 113.245 119.637 111.003 121.9 107.832C122.069 107.595 122.354 107.426 122.726 107.107H122.719Z" fill="#102C57"/>
<path d="M144.751 42.2741C149.561 39.7675 154.14 39.5778 158.733 39.8894C161.369 40.0724 163.272 41.7457 164.343 44.1236C165.359 46.3863 164.966 48.5 163.252 50.3969C162.229 51.5282 161.45 52.8696 160.508 54.0687C158.991 56.0063 157.379 56.0876 155.665 54.3058C155.116 53.7368 154.675 53.0525 154.235 52.3886C151.715 48.5813 149.676 44.3539 144.757 42.2673L144.751 42.2741Z" fill="#102C57"/>
<path d="M130.43 111.926H126.636V112.793H130.43V111.926Z" fill="#102C57"/>
<path d="M130.43 114.143H126.636V115.01H130.43V114.143Z" fill="#102C57"/>
<path d="M152.088 120.544C149.688 120.544 147.748 118.596 147.748 116.203C147.748 113.81 149.695 111.863 152.088 111.863V120.55V120.544Z" fill="#102C57"/>
<path d="M152.088 120.544C154.485 120.544 156.428 118.6 156.428 116.203C156.428 113.806 154.485 111.863 152.088 111.863C149.691 111.863 147.748 113.806 147.748 116.203C147.748 118.6 149.691 120.544 152.088 120.544Z" stroke="#0E3850" stroke-width="0.5" stroke-miterlimit="10"/>
<path d="M135.11 120.544C132.71 120.544 130.769 118.596 130.769 116.203C130.769 113.81 132.716 111.863 135.11 111.863V120.55V120.544Z" fill="#102C57"/>
<path d="M135.11 120.544C137.507 120.544 139.45 118.6 139.45 116.203C139.45 113.806 137.507 111.863 135.11 111.863C132.712 111.863 130.769 113.806 130.769 116.203C130.769 118.6 132.712 120.544 135.11 120.544Z" stroke="#0E3850" stroke-width="0.5" stroke-miterlimit="10"/>
<path d="M126.636 111.926H122.641V120.544H126.636V111.926Z" fill="#102C57"/>
<path d="M144.205 111.926H140.21V120.544H144.205V111.926Z" fill="#102C57"/>
<path d="M223.292 96.148C224.36 96.148 225.236 96.286 225.92 96.562C226.616 96.826 227.132 97.228 227.468 97.768C227.804 98.308 227.972 98.986 227.972 99.802C227.972 100.486 227.846 101.056 227.594 101.512C227.342 101.968 227.018 102.334 226.622 102.61C226.238 102.874 225.83 103.084 225.398 103.24L228.926 109H227.036L223.922 103.69H221.366V109H219.746V96.148H223.292ZM223.202 97.552H221.366V102.322H223.292C223.988 102.322 224.558 102.232 225.002 102.052C225.446 101.86 225.77 101.584 225.974 101.224C226.19 100.864 226.298 100.414 226.298 99.874C226.298 99.31 226.184 98.86 225.956 98.524C225.74 98.188 225.404 97.942 224.948 97.786C224.492 97.63 223.91 97.552 223.202 97.552ZM233.031 99.352V109H231.447V99.352H233.031ZM232.257 95.734C232.497 95.734 232.707 95.818 232.887 95.986C233.079 96.142 233.175 96.394 233.175 96.742C233.175 97.078 233.079 97.33 232.887 97.498C232.707 97.666 232.497 97.75 232.257 97.75C231.993 97.75 231.771 97.666 231.591 97.498C231.411 97.33 231.321 97.078 231.321 96.742C231.321 96.394 231.411 96.142 231.591 95.986C231.771 95.818 231.993 95.734 232.257 95.734ZM240.228 109.18C239.028 109.18 238.068 108.766 237.348 107.938C236.628 107.098 236.268 105.85 236.268 104.194C236.268 102.538 236.628 101.29 237.348 100.45C238.08 99.598 239.046 99.172 240.246 99.172C240.75 99.172 241.188 99.238 241.56 99.37C241.932 99.49 242.256 99.658 242.532 99.874C242.808 100.09 243.042 100.33 243.234 100.594H243.342C243.33 100.438 243.306 100.21 243.27 99.91C243.246 99.598 243.234 99.352 243.234 99.172V95.32H244.818V109H243.54L243.306 107.704H243.234C243.042 107.98 242.808 108.232 242.532 108.46C242.256 108.676 241.926 108.85 241.542 108.982C241.17 109.114 240.732 109.18 240.228 109.18ZM240.48 107.866C241.5 107.866 242.214 107.59 242.622 107.038C243.042 106.474 243.252 105.628 243.252 104.5V104.212C243.252 103.012 243.054 102.094 242.658 101.458C242.262 100.81 241.53 100.486 240.462 100.486C239.61 100.486 238.968 100.828 238.536 101.512C238.116 102.184 237.906 103.09 237.906 104.23C237.906 105.382 238.116 106.276 238.536 106.912C238.968 107.548 239.616 107.866 240.48 107.866ZM252.328 99.172C253.156 99.172 253.864 99.352 254.452 99.712C255.052 100.072 255.508 100.582 255.82 101.242C256.144 101.89 256.306 102.652 256.306 103.528V104.482H249.7C249.724 105.574 250 106.408 250.528 106.984C251.068 107.548 251.818 107.83 252.778 107.83C253.39 107.83 253.93 107.776 254.398 107.668C254.878 107.548 255.37 107.38 255.874 107.164V108.55C255.382 108.766 254.896 108.922 254.416 109.018C253.936 109.126 253.366 109.18 252.706 109.18C251.794 109.18 250.984 108.994 250.276 108.622C249.58 108.25 249.034 107.698 248.638 106.966C248.254 106.222 248.062 105.316 248.062 104.248C248.062 103.192 248.236 102.286 248.584 101.53C248.944 100.774 249.442 100.192 250.078 99.784C250.726 99.376 251.476 99.172 252.328 99.172ZM252.31 100.468C251.554 100.468 250.954 100.714 250.51 101.206C250.078 101.686 249.82 102.358 249.736 103.222H254.65C254.65 102.67 254.566 102.19 254.398 101.782C254.23 101.374 253.972 101.056 253.624 100.828C253.288 100.588 252.85 100.468 252.31 100.468ZM264.728 109H263.108V96.148H270.29V97.57H264.728V102.124H269.948V103.546H264.728V109ZM277.446 99.172C277.626 99.172 277.818 99.184 278.022 99.208C278.238 99.22 278.424 99.244 278.58 99.28L278.382 100.738C278.226 100.702 278.052 100.672 277.86 100.648C277.68 100.624 277.506 100.612 277.338 100.612C276.966 100.612 276.612 100.69 276.276 100.846C275.94 101.002 275.64 101.224 275.376 101.512C275.112 101.788 274.902 102.124 274.746 102.52C274.602 102.916 274.53 103.36 274.53 103.852V109H272.946V99.352H274.242L274.422 101.116H274.494C274.698 100.756 274.944 100.432 275.232 100.144C275.52 99.844 275.85 99.61 276.222 99.442C276.594 99.262 277.002 99.172 277.446 99.172ZM284.476 99.172C285.304 99.172 286.012 99.352 286.6 99.712C287.2 100.072 287.656 100.582 287.968 101.242C288.292 101.89 288.454 102.652 288.454 103.528V104.482H281.848C281.872 105.574 282.148 106.408 282.676 106.984C283.216 107.548 283.966 107.83 284.926 107.83C285.538 107.83 286.078 107.776 286.546 107.668C287.026 107.548 287.518 107.38 288.022 107.164V108.55C287.53 108.766 287.044 108.922 286.564 109.018C286.084 109.126 285.514 109.18 284.854 109.18C283.942 109.18 283.132 108.994 282.424 108.622C281.728 108.25 281.182 107.698 280.786 106.966C280.402 106.222 280.21 105.316 280.21 104.248C280.21 103.192 280.384 102.286 280.732 101.53C281.092 100.774 281.59 100.192 282.226 99.784C282.874 99.376 283.624 99.172 284.476 99.172ZM284.458 100.468C283.702 100.468 283.102 100.714 282.658 101.206C282.226 101.686 281.968 102.358 281.884 103.222H286.798C286.798 102.67 286.714 102.19 286.546 101.782C286.378 101.374 286.12 101.056 285.772 100.828C285.436 100.588 284.998 100.468 284.458 100.468ZM295.356 99.172C296.184 99.172 296.892 99.352 297.48 99.712C298.08 100.072 298.536 100.582 298.848 101.242C299.172 101.89 299.334 102.652 299.334 103.528V104.482H292.728C292.752 105.574 293.028 106.408 293.556 106.984C294.096 107.548 294.846 107.83 295.806 107.83C296.418 107.83 296.958 107.776 297.426 107.668C297.906 107.548 298.398 107.38 298.902 107.164V108.55C298.41 108.766 297.924 108.922 297.444 109.018C296.964 109.126 296.394 109.18 295.734 109.18C294.822 109.18 294.012 108.994 293.304 108.622C292.608 108.25 292.062 107.698 291.666 106.966C291.282 106.222 291.09 105.316 291.09 104.248C291.09 103.192 291.264 102.286 291.612 101.53C291.972 100.774 292.47 100.192 293.106 99.784C293.754 99.376 294.504 99.172 295.356 99.172ZM295.338 100.468C294.582 100.468 293.982 100.714 293.538 101.206C293.106 101.686 292.848 102.358 292.764 103.222H297.678C297.678 102.67 297.594 102.19 297.426 101.782C297.258 101.374 297 101.056 296.652 100.828C296.316 100.588 295.878 100.468 295.338 100.468ZM304.094 109H302.51V95.32H304.094V109ZM306.359 99.352H308.051L310.139 104.842C310.259 105.166 310.367 105.478 310.463 105.778C310.571 106.078 310.667 106.372 310.751 106.66C310.835 106.936 310.901 107.206 310.949 107.47H311.021C311.093 107.17 311.207 106.78 311.363 106.3C311.519 105.808 311.681 105.316 311.849 104.824L313.811 99.352H315.521L311.363 110.332C311.135 110.932 310.865 111.454 310.553 111.898C310.253 112.354 309.881 112.702 309.437 112.942C309.005 113.194 308.477 113.32 307.853 113.32C307.565 113.32 307.313 113.302 307.097 113.266C306.881 113.242 306.695 113.212 306.539 113.176V111.916C306.671 111.94 306.827 111.964 307.007 111.988C307.199 112.012 307.397 112.024 307.601 112.024C307.973 112.024 308.291 111.952 308.555 111.808C308.831 111.676 309.065 111.478 309.257 111.214C309.449 110.962 309.611 110.662 309.743 110.314L310.247 109.036L306.359 99.352ZM318.972 107.11C318.864 107.53 318.726 107.986 318.558 108.478C318.39 108.97 318.204 109.456 318 109.936C317.808 110.428 317.616 110.89 317.424 111.322H316.254C316.374 110.866 316.488 110.374 316.596 109.846C316.716 109.33 316.824 108.82 316.92 108.316C317.016 107.8 317.094 107.332 317.154 106.912H318.846L318.972 107.11ZM329.754 96.148C330.822 96.148 331.698 96.286 332.382 96.562C333.078 96.826 333.594 97.228 333.93 97.768C334.266 98.308 334.434 98.986 334.434 99.802C334.434 100.486 334.308 101.056 334.056 101.512C333.804 101.968 333.48 102.334 333.084 102.61C332.7 102.874 332.292 103.084 331.86 103.24L335.388 109H333.498L330.384 103.69H327.828V109H326.208V96.148H329.754ZM329.664 97.552H327.828V102.322H329.754C330.45 102.322 331.02 102.232 331.464 102.052C331.908 101.86 332.232 101.584 332.436 101.224C332.652 100.864 332.76 100.414 332.76 99.874C332.76 99.31 332.646 98.86 332.418 98.524C332.202 98.188 331.866 97.942 331.41 97.786C330.954 97.63 330.372 97.552 329.664 97.552ZM341.635 99.172C342.463 99.172 343.171 99.352 343.759 99.712C344.359 100.072 344.815 100.582 345.127 101.242C345.451 101.89 345.613 102.652 345.613 103.528V104.482H339.007C339.031 105.574 339.307 106.408 339.835 106.984C340.375 107.548 341.125 107.83 342.085 107.83C342.697 107.83 343.237 107.776 343.705 107.668C344.185 107.548 344.677 107.38 345.181 107.164V108.55C344.689 108.766 344.203 108.922 343.723 109.018C343.243 109.126 342.673 109.18 342.013 109.18C341.101 109.18 340.291 108.994 339.583 108.622C338.887 108.25 338.341 107.698 337.945 106.966C337.561 106.222 337.369 105.316 337.369 104.248C337.369 103.192 337.543 102.286 337.891 101.53C338.251 100.774 338.749 100.192 339.385 99.784C340.033 99.376 340.783 99.172 341.635 99.172ZM341.617 100.468C340.861 100.468 340.261 100.714 339.817 101.206C339.385 101.686 339.127 102.358 339.043 103.222H343.957C343.957 102.67 343.873 102.19 343.705 101.782C343.537 101.374 343.279 101.056 342.931 100.828C342.595 100.588 342.157 100.468 341.617 100.468ZM353.433 99.172C354.585 99.172 355.455 99.454 356.043 100.018C356.631 100.57 356.925 101.47 356.925 102.718V109H355.359V102.826C355.359 102.046 355.185 101.464 354.837 101.08C354.489 100.696 353.943 100.504 353.199 100.504C352.131 100.504 351.393 100.804 350.985 101.404C350.577 102.004 350.373 102.868 350.373 103.996V109H348.789V99.352H350.067L350.301 100.666H350.391C350.607 100.33 350.871 100.054 351.183 99.838C351.507 99.61 351.861 99.442 352.245 99.334C352.629 99.226 353.025 99.172 353.433 99.172ZM363.858 107.884C364.098 107.884 364.344 107.866 364.596 107.83C364.848 107.782 365.052 107.734 365.208 107.686V108.892C365.04 108.976 364.8 109.042 364.488 109.09C364.176 109.15 363.876 109.18 363.588 109.18C363.084 109.18 362.616 109.096 362.184 108.928C361.764 108.748 361.422 108.442 361.158 108.01C360.894 107.578 360.762 106.972 360.762 106.192V100.576H359.394V99.82L360.78 99.19L361.41 97.138H362.346V99.352H365.136V100.576H362.346V106.156C362.346 106.744 362.484 107.182 362.76 107.47C363.048 107.746 363.414 107.884 363.858 107.884ZM378.667 109H371.485V96.148H378.667V97.57H373.105V101.584H378.343V102.988H373.105V107.578H378.667V109ZM385.645 99.19C386.821 99.19 387.691 99.448 388.255 99.964C388.819 100.48 389.101 101.302 389.101 102.43V109H387.949L387.643 107.632H387.571C387.295 107.98 387.007 108.274 386.707 108.514C386.419 108.742 386.083 108.91 385.699 109.018C385.327 109.126 384.871 109.18 384.331 109.18C383.755 109.18 383.233 109.078 382.765 108.874C382.309 108.67 381.949 108.358 381.685 107.938C381.421 107.506 381.289 106.966 381.289 106.318C381.289 105.358 381.667 104.62 382.423 104.104C383.179 103.576 384.343 103.288 385.915 103.24L387.553 103.186V102.61C387.553 101.806 387.379 101.248 387.031 100.936C386.683 100.624 386.191 100.468 385.555 100.468C385.051 100.468 384.571 100.546 384.115 100.702C383.659 100.846 383.233 101.014 382.837 101.206L382.351 100.018C382.771 99.79 383.269 99.598 383.845 99.442C384.421 99.274 385.021 99.19 385.645 99.19ZM386.113 104.338C384.913 104.386 384.079 104.578 383.611 104.914C383.155 105.25 382.927 105.724 382.927 106.336C382.927 106.876 383.089 107.272 383.413 107.524C383.749 107.776 384.175 107.902 384.691 107.902C385.507 107.902 386.185 107.68 386.725 107.236C387.265 106.78 387.535 106.084 387.535 105.148V104.284L386.113 104.338ZM399.083 106.336C399.083 106.96 398.927 107.482 398.615 107.902C398.303 108.322 397.859 108.64 397.283 108.856C396.707 109.072 396.023 109.18 395.231 109.18C394.559 109.18 393.977 109.126 393.485 109.018C393.005 108.91 392.579 108.76 392.207 108.568V107.128C392.591 107.32 393.053 107.5 393.593 107.668C394.145 107.824 394.703 107.902 395.267 107.902C396.071 107.902 396.653 107.776 397.013 107.524C397.373 107.26 397.553 106.912 397.553 106.48C397.553 106.24 397.487 106.024 397.355 105.832C397.223 105.64 396.983 105.448 396.635 105.256C396.299 105.064 395.813 104.848 395.177 104.608C394.553 104.368 394.019 104.128 393.575 103.888C393.131 103.648 392.789 103.36 392.549 103.024C392.309 102.688 392.189 102.256 392.189 101.728C392.189 100.912 392.519 100.282 393.179 99.838C393.851 99.394 394.727 99.172 395.807 99.172C396.395 99.172 396.941 99.232 397.445 99.352C397.961 99.46 398.441 99.616 398.885 99.82L398.345 101.08C398.081 100.96 397.799 100.858 397.499 100.774C397.211 100.678 396.917 100.606 396.617 100.558C396.317 100.498 396.011 100.468 395.699 100.468C395.051 100.468 394.553 100.576 394.205 100.792C393.869 100.996 393.701 101.278 393.701 101.638C393.701 101.902 393.779 102.13 393.935 102.322C394.091 102.502 394.349 102.682 394.709 102.862C395.081 103.03 395.573 103.234 396.185 103.474C396.797 103.702 397.319 103.936 397.751 104.176C398.183 104.416 398.513 104.71 398.741 105.058C398.969 105.394 399.083 105.82 399.083 106.336ZM403.718 99.352V109H402.134V99.352H403.718ZM402.944 95.734C403.184 95.734 403.394 95.818 403.574 95.986C403.766 96.142 403.862 96.394 403.862 96.742C403.862 97.078 403.766 97.33 403.574 97.498C403.394 97.666 403.184 97.75 402.944 97.75C402.68 97.75 402.458 97.666 402.278 97.498C402.098 97.33 402.008 97.078 402.008 96.742C402.008 96.394 402.098 96.142 402.278 95.986C402.458 95.818 402.68 95.734 402.944 95.734ZM409.079 109H407.495V95.32H409.079V109ZM411.344 99.352H413.036L415.124 104.842C415.244 105.166 415.352 105.478 415.448 105.778C415.556 106.078 415.652 106.372 415.736 106.66C415.82 106.936 415.886 107.206 415.934 107.47H416.006C416.078 107.17 416.192 106.78 416.348 106.3C416.504 105.808 416.666 105.316 416.834 104.824L418.796 99.352H420.506L416.348 110.332C416.12 110.932 415.85 111.454 415.538 111.898C415.238 112.354 414.866 112.702 414.422 112.942C413.99 113.194 413.462 113.32 412.838 113.32C412.55 113.32 412.298 113.302 412.082 113.266C411.866 113.242 411.68 113.212 411.524 113.176V111.916C411.656 111.94 411.812 111.964 411.992 111.988C412.184 112.012 412.382 112.024 412.586 112.024C412.958 112.024 413.276 111.952 413.54 111.808C413.816 111.676 414.05 111.478 414.242 111.214C414.434 110.962 414.596 110.662 414.728 110.314L415.232 109.036L411.344 99.352Z" fill="#102C57"/>
<path d="M235.9 59.5C233.367 59.5 231.433 60.05 230.1 61.15C228.767 62.25 228.1 63.9167 228.1 66.15V67.35H241.55V75H228.1V87H218.2V66.3C218.2 61.5333 219.683 57.85 222.65 55.25C225.617 52.6167 229.783 51.3 235.15 51.3C237.183 51.3 239.083 51.5 240.85 51.9C242.65 52.3 244.183 52.8667 245.45 53.6L242.55 61.2C240.617 60.0667 238.4 59.5 235.9 59.5ZM260.142 87.45C257.242 87.45 254.626 86.85 252.292 85.65C249.959 84.45 248.126 82.7833 246.792 80.65C245.492 78.5167 244.842 76.1 244.842 73.4C244.842 70.7333 245.492 68.3333 246.792 66.2C248.126 64.0667 249.942 62.4167 252.242 61.25C254.576 60.05 257.209 59.45 260.142 59.45C263.076 59.45 265.709 60.05 268.042 61.25C270.376 62.4167 272.192 64.0667 273.492 66.2C274.792 68.3 275.442 70.7 275.442 73.4C275.442 76.1 274.792 78.5167 273.492 80.65C272.192 82.7833 270.376 84.45 268.042 85.65C265.709 86.85 263.076 87.45 260.142 87.45ZM260.142 79.9C261.809 79.9 263.176 79.3333 264.242 78.2C265.309 77.0333 265.842 75.4333 265.842 73.4C265.842 71.4 265.309 69.8333 264.242 68.7C263.176 67.5667 261.809 67 260.142 67C258.476 67 257.109 67.5667 256.042 68.7C254.976 69.8333 254.442 71.4 254.442 73.4C254.442 75.4333 254.976 77.0333 256.042 78.2C257.109 79.3333 258.476 79.9 260.142 79.9ZM289.393 87.45C286.06 87.45 283.46 86.6 281.593 84.9C279.76 83.1667 278.843 80.7 278.843 77.5V49.9H288.343V77C288.343 78 288.593 78.7667 289.093 79.3C289.626 79.8333 290.36 80.1 291.293 80.1C292.06 80.1 292.776 79.9333 293.443 79.6L293.843 86.75C292.41 87.2167 290.926 87.45 289.393 87.45ZM309.363 87.45C306.463 87.45 303.846 86.85 301.513 85.65C299.18 84.45 297.346 82.7833 296.013 80.65C294.713 78.5167 294.063 76.1 294.063 73.4C294.063 70.7333 294.713 68.3333 296.013 66.2C297.346 64.0667 299.163 62.4167 301.463 61.25C303.796 60.05 306.43 59.45 309.363 59.45C312.296 59.45 314.93 60.05 317.263 61.25C319.596 62.4167 321.413 64.0667 322.713 66.2C324.013 68.3 324.663 70.7 324.663 73.4C324.663 76.1 324.013 78.5167 322.713 80.65C321.413 82.7833 319.596 84.45 317.263 85.65C314.93 86.85 312.296 87.45 309.363 87.45ZM309.363 79.9C311.03 79.9 312.396 79.3333 313.463 78.2C314.53 77.0333 315.063 75.4333 315.063 73.4C315.063 71.4 314.53 69.8333 313.463 68.7C312.396 67.5667 311.03 67 309.363 67C307.696 67 306.33 67.5667 305.263 68.7C304.196 69.8333 303.663 71.4 303.663 73.4C303.663 75.4333 304.196 77.0333 305.263 78.2C306.33 79.3333 307.696 79.9 309.363 79.9ZM357.364 77.7H351.964V87H342.064V52H358.064C361.231 52 363.981 52.5333 366.314 53.6C368.648 54.6333 370.448 56.1333 371.714 58.1C372.981 60.0333 373.614 62.3167 373.614 64.95C373.614 67.4833 373.014 69.7 371.814 71.6C370.648 73.4667 368.964 74.9333 366.764 76L374.314 87H363.714L357.364 77.7ZM363.614 64.95C363.614 63.3167 363.098 62.05 362.064 61.15C361.031 60.25 359.498 59.8 357.464 59.8H351.964V70.05H357.464C359.498 70.05 361.031 69.6167 362.064 68.75C363.098 67.85 363.614 66.5833 363.614 64.95ZM392.126 80.2C393.426 80.2 394.543 80.0167 395.476 79.65C396.443 79.2833 397.41 78.6833 398.376 77.85L403.326 83.05C400.76 85.9833 396.926 87.45 391.826 87.45C388.66 87.45 385.876 86.85 383.476 85.65C381.076 84.45 379.21 82.7833 377.876 80.65C376.576 78.5167 375.926 76.1 375.926 73.4C375.926 70.7333 376.576 68.35 377.876 66.25C379.176 64.1167 380.96 62.45 383.226 61.25C385.526 60.05 388.093 59.45 390.926 59.45C393.56 59.45 395.96 60 398.126 61.1C400.326 62.1667 402.076 63.75 403.376 65.85C404.676 67.9167 405.326 70.3833 405.326 73.25L385.976 76.95C387.01 79.1167 389.06 80.2 392.126 80.2ZM390.976 66.2C389.343 66.2 388.01 66.7167 386.976 67.75C385.943 68.75 385.36 70.2 385.226 72.1L396.226 69.95C395.893 68.8167 395.26 67.9167 394.326 67.25C393.393 66.55 392.276 66.2 390.976 66.2ZM426.356 59.45C429.723 59.45 432.423 60.45 434.456 62.45C436.523 64.45 437.556 67.4667 437.556 71.5V87H428.056V73.05C428.056 69.35 426.573 67.5 423.606 67.5C421.973 67.5 420.656 68.0333 419.656 69.1C418.69 70.1667 418.206 71.7667 418.206 73.9V87H408.706V59.9H417.756V62.85C418.823 61.75 420.09 60.9167 421.556 60.35C423.023 59.75 424.623 59.45 426.356 59.45ZM459.971 85.9C459.171 86.4 458.187 86.7833 457.021 87.05C455.887 87.3167 454.671 87.45 453.371 87.45C449.837 87.45 447.121 86.5833 445.221 84.85C443.354 83.1167 442.421 80.5333 442.421 77.1V53.85H451.921V60.9H458.071V68H451.921V77C451.921 78 452.171 78.7667 452.671 79.3C453.171 79.8333 453.854 80.1 454.721 80.1C455.821 80.1 456.787 79.8167 457.621 79.25L459.971 85.9ZM490.483 59.9V87H481.433V84.3C479.667 86.4 477 87.45 473.433 87.45C470.967 87.45 468.717 86.8833 466.683 85.75C464.683 84.5833 463.083 82.9333 461.883 80.8C460.717 78.6667 460.133 76.2 460.133 73.4C460.133 70.6 460.717 68.15 461.883 66.05C463.083 63.9167 464.683 62.2833 466.683 61.15C468.717 60.0167 470.967 59.45 473.433 59.45C476.633 59.45 479.15 60.3833 480.983 62.25V59.9H490.483ZM475.433 79.9C477.1 79.9 478.467 79.3333 479.533 78.2C480.6 77.0333 481.133 75.4333 481.133 73.4C481.133 71.4 480.6 69.8333 479.533 68.7C478.467 67.5667 477.1 67 475.433 67C473.767 67 472.4 67.5667 471.333 68.7C470.267 69.8333 469.733 71.4 469.733 73.4C469.733 75.4333 470.267 77.0333 471.333 78.2C472.4 79.3333 473.767 79.9 475.433 79.9ZM506.149 87.45C502.815 87.45 500.215 86.6 498.349 84.9C496.515 83.1667 495.599 80.7 495.599 77.5V49.9H505.099V77C505.099 78 505.349 78.7667 505.849 79.3C506.382 79.8333 507.115 80.1 508.049 80.1C508.815 80.1 509.532 79.9333 510.199 79.6L510.599 86.75C509.165 87.2167 507.682 87.45 506.149 87.45ZM522.857 87.45C520.59 87.45 518.357 87.2 516.157 86.7C513.957 86.1667 512.19 85.4833 510.857 84.65L513.707 78.15C514.94 78.9167 516.407 79.5333 518.107 80C519.807 80.4333 521.49 80.65 523.157 80.65C524.69 80.65 525.774 80.5 526.407 80.2C527.074 79.8667 527.407 79.4 527.407 78.8C527.407 78.2 527.007 77.7833 526.207 77.55C525.44 77.2833 524.207 77.0333 522.507 76.8C520.34 76.5333 518.49 76.1833 516.957 75.75C515.457 75.3167 514.157 74.5167 513.057 73.35C511.957 72.1833 511.407 70.55 511.407 68.45C511.407 66.7167 511.924 65.1833 512.957 63.85C513.99 62.4833 515.49 61.4167 517.457 60.65C519.457 59.85 521.84 59.45 524.607 59.45C526.574 59.45 528.524 59.65 530.457 60.05C532.39 60.45 534.007 61.0167 535.307 61.75L532.457 68.2C530.057 66.8667 527.457 66.2 524.657 66.2C523.157 66.2 522.057 66.3833 521.357 66.75C520.657 67.0833 520.307 67.5333 520.307 68.1C520.307 68.7333 520.69 69.1833 521.457 69.45C522.224 69.6833 523.49 69.9333 525.257 70.2C527.49 70.5333 529.34 70.9167 530.807 71.35C532.274 71.7833 533.54 72.5833 534.607 73.75C535.707 74.8833 536.257 76.4833 536.257 78.55C536.257 80.25 535.74 81.7833 534.707 83.15C533.674 84.4833 532.14 85.5333 530.107 86.3C528.107 87.0667 525.69 87.45 522.857 87.45Z" fill="#102C57"/>
<path d="M235.9 59.5C233.367 59.5 231.433 60.05 230.1 61.15C228.767 62.25 228.1 63.9167 228.1 66.15V67.35H241.55V75H228.1V87H218.2V66.3C218.2 61.5333 219.683 57.85 222.65 55.25C225.617 52.6167 229.783 51.3 235.15 51.3C237.183 51.3 239.083 51.5 240.85 51.9C242.65 52.3 244.183 52.8667 245.45 53.6L242.55 61.2C240.617 60.0667 238.4 59.5 235.9 59.5ZM260.142 87.45C257.242 87.45 254.626 86.85 252.292 85.65C249.959 84.45 248.126 82.7833 246.792 80.65C245.492 78.5167 244.842 76.1 244.842 73.4C244.842 70.7333 245.492 68.3333 246.792 66.2C248.126 64.0667 249.942 62.4167 252.242 61.25C254.576 60.05 257.209 59.45 260.142 59.45C263.076 59.45 265.709 60.05 268.042 61.25C270.376 62.4167 272.192 64.0667 273.492 66.2C274.792 68.3 275.442 70.7 275.442 73.4C275.442 76.1 274.792 78.5167 273.492 80.65C272.192 82.7833 270.376 84.45 268.042 85.65C265.709 86.85 263.076 87.45 260.142 87.45ZM260.142 79.9C261.809 79.9 263.176 79.3333 264.242 78.2C265.309 77.0333 265.842 75.4333 265.842 73.4C265.842 71.4 265.309 69.8333 264.242 68.7C263.176 67.5667 261.809 67 260.142 67C258.476 67 257.109 67.5667 256.042 68.7C254.976 69.8333 254.442 71.4 254.442 73.4C254.442 75.4333 254.976 77.0333 256.042 78.2C257.109 79.3333 258.476 79.9 260.142 79.9ZM289.393 87.45C286.06 87.45 283.46 86.6 281.593 84.9C279.76 83.1667 278.843 80.7 278.843 77.5V49.9H288.343V77C288.343 78 288.593 78.7667 289.093 79.3C289.626 79.8333 290.36 80.1 291.293 80.1C292.06 80.1 292.776 79.9333 293.443 79.6L293.843 86.75C292.41 87.2167 290.926 87.45 289.393 87.45ZM309.363 87.45C306.463 87.45 303.846 86.85 301.513 85.65C299.18 84.45 297.346 82.7833 296.013 80.65C294.713 78.5167 294.063 76.1 294.063 73.4C294.063 70.7333 294.713 68.3333 296.013 66.2C297.346 64.0667 299.163 62.4167 301.463 61.25C303.796 60.05 306.43 59.45 309.363 59.45C312.296 59.45 314.93 60.05 317.263 61.25C319.596 62.4167 321.413 64.0667 322.713 66.2C324.013 68.3 324.663 70.7 324.663 73.4C324.663 76.1 324.013 78.5167 322.713 80.65C321.413 82.7833 319.596 84.45 317.263 85.65C314.93 86.85 312.296 87.45 309.363 87.45ZM309.363 79.9C311.03 79.9 312.396 79.3333 313.463 78.2C314.53 77.0333 315.063 75.4333 315.063 73.4C315.063 71.4 314.53 69.8333 313.463 68.7C312.396 67.5667 311.03 67 309.363 67C307.696 67 306.33 67.5667 305.263 68.7C304.196 69.8333 303.663 71.4 303.663 73.4C303.663 75.4333 304.196 77.0333 305.263 78.2C306.33 79.3333 307.696 79.9 309.363 79.9ZM357.364 77.7H351.964V87H342.064V52H358.064C361.231 52 363.981 52.5333 366.314 53.6C368.648 54.6333 370.448 56.1333 371.714 58.1C372.981 60.0333 373.614 62.3167 373.614 64.95C373.614 67.4833 373.014 69.7 371.814 71.6C370.648 73.4667 368.964 74.9333 366.764 76L374.314 87H363.714L357.364 77.7ZM363.614 64.95C363.614 63.3167 363.098 62.05 362.064 61.15C361.031 60.25 359.498 59.8 357.464 59.8H351.964V70.05H357.464C359.498 70.05 361.031 69.6167 362.064 68.75C363.098 67.85 363.614 66.5833 363.614 64.95ZM392.126 80.2C393.426 80.2 394.543 80.0167 395.476 79.65C396.443 79.2833 397.41 78.6833 398.376 77.85L403.326 83.05C400.76 85.9833 396.926 87.45 391.826 87.45C388.66 87.45 385.876 86.85 383.476 85.65C381.076 84.45 379.21 82.7833 377.876 80.65C376.576 78.5167 375.926 76.1 375.926 73.4C375.926 70.7333 376.576 68.35 377.876 66.25C379.176 64.1167 380.96 62.45 383.226 61.25C385.526 60.05 388.093 59.45 390.926 59.45C393.56 59.45 395.96 60 398.126 61.1C400.326 62.1667 402.076 63.75 403.376 65.85C404.676 67.9167 405.326 70.3833 405.326 73.25L385.976 76.95C387.01 79.1167 389.06 80.2 392.126 80.2ZM390.976 66.2C389.343 66.2 388.01 66.7167 386.976 67.75C385.943 68.75 385.36 70.2 385.226 72.1L396.226 69.95C395.893 68.8167 395.26 67.9167 394.326 67.25C393.393 66.55 392.276 66.2 390.976 66.2ZM426.356 59.45C429.723 59.45 432.423 60.45 434.456 62.45C436.523 64.45 437.556 67.4667 437.556 71.5V87H428.056V73.05C428.056 69.35 426.573 67.5 423.606 67.5C421.973 67.5 420.656 68.0333 419.656 69.1C418.69 70.1667 418.206 71.7667 418.206 73.9V87H408.706V59.9H417.756V62.85C418.823 61.75 420.09 60.9167 421.556 60.35C423.023 59.75 424.623 59.45 426.356 59.45ZM459.971 85.9C459.171 86.4 458.187 86.7833 457.021 87.05C455.887 87.3167 454.671 87.45 453.371 87.45C449.837 87.45 447.121 86.5833 445.221 84.85C443.354 83.1167 442.421 80.5333 442.421 77.1V53.85H451.921V60.9H458.071V68H451.921V77C451.921 78 452.171 78.7667 452.671 79.3C453.171 79.8333 453.854 80.1 454.721 80.1C455.821 80.1 456.787 79.8167 457.621 79.25L459.971 85.9ZM490.483 59.9V87H481.433V84.3C479.667 86.4 477 87.45 473.433 87.45C470.967 87.45 468.717 86.8833 466.683 85.75C464.683 84.5833 463.083 82.9333 461.883 80.8C460.717 78.6667 460.133 76.2 460.133 73.4C460.133 70.6 460.717 68.15 461.883 66.05C463.083 63.9167 464.683 62.2833 466.683 61.15C468.717 60.0167 470.967 59.45 473.433 59.45C476.633 59.45 479.15 60.3833 480.983 62.25V59.9H490.483ZM475.433 79.9C477.1 79.9 478.467 79.3333 479.533 78.2C480.6 77.0333 481.133 75.4333 481.133 73.4C481.133 71.4 480.6 69.8333 479.533 68.7C478.467 67.5667 477.1 67 475.433 67C473.767 67 472.4 67.5667 471.333 68.7C470.267 69.8333 469.733 71.4 469.733 73.4C469.733 75.4333 470.267 77.0333 471.333 78.2C472.4 79.3333 473.767 79.9 475.433 79.9ZM506.149 87.45C502.815 87.45 500.215 86.6 498.349 84.9C496.515 83.1667 495.599 80.7 495.599 77.5V49.9H505.099V77C505.099 78 505.349 78.7667 505.849 79.3C506.382 79.8333 507.115 80.1 508.049 80.1C508.815 80.1 509.532 79.9333 510.199 79.6L510.599 86.75C509.165 87.2167 507.682 87.45 506.149 87.45ZM522.857 87.45C520.59 87.45 518.357 87.2 516.157 86.7C513.957 86.1667 512.19 85.4833 510.857 84.65L513.707 78.15C514.94 78.9167 516.407 79.5333 518.107 80C519.807 80.4333 521.49 80.65 523.157 80.65C524.69 80.65 525.774 80.5 526.407 80.2C527.074 79.8667 527.407 79.4 527.407 78.8C527.407 78.2 527.007 77.7833 526.207 77.55C525.44 77.2833 524.207 77.0333 522.507 76.8C520.34 76.5333 518.49 76.1833 516.957 75.75C515.457 75.3167 514.157 74.5167 513.057 73.35C511.957 72.1833 511.407 70.55 511.407 68.45C511.407 66.7167 511.924 65.1833 512.957 63.85C513.99 62.4833 515.49 61.4167 517.457 60.65C519.457 59.85 521.84 59.45 524.607 59.45C526.574 59.45 528.524 59.65 530.457 60.05C532.39 60.45 534.007 61.0167 535.307 61.75L532.457 68.2C530.057 66.8667 527.457 66.2 524.657 66.2C523.157 66.2 522.057 66.3833 521.357 66.75C520.657 67.0833 520.307 67.5333 520.307 68.1C520.307 68.7333 520.69 69.1833 521.457 69.45C522.224 69.6833 523.49 69.9333 525.257 70.2C527.49 70.5333 529.34 70.9167 530.807 71.35C532.274 71.7833 533.54 72.5833 534.607 73.75C535.707 74.8833 536.257 76.4833 536.257 78.55C536.257 80.25 535.74 81.7833 534.707 83.15C533.674 84.4833 532.14 85.5333 530.107 86.3C528.107 87.0667 525.69 87.45 522.857 87.45Z" fill="white"/>
<path d="M223.292 96.148C224.36 96.148 225.236 96.286 225.92 96.562C226.616 96.826 227.132 97.228 227.468 97.768C227.804 98.308 227.972 98.986 227.972 99.802C227.972 100.486 227.846 101.056 227.594 101.512C227.342 101.968 227.018 102.334 226.622 102.61C226.238 102.874 225.83 103.084 225.398 103.24L228.926 109H227.036L223.922 103.69H221.366V109H219.746V96.148H223.292ZM223.202 97.552H221.366V102.322H223.292C223.988 102.322 224.558 102.232 225.002 102.052C225.446 101.86 225.77 101.584 225.974 101.224C226.19 100.864 226.298 100.414 226.298 99.874C226.298 99.31 226.184 98.86 225.956 98.524C225.74 98.188 225.404 97.942 224.948 97.786C224.492 97.63 223.91 97.552 223.202 97.552ZM233.031 99.352V109H231.447V99.352H233.031ZM232.257 95.734C232.497 95.734 232.707 95.818 232.887 95.986C233.079 96.142 233.175 96.394 233.175 96.742C233.175 97.078 233.079 97.33 232.887 97.498C232.707 97.666 232.497 97.75 232.257 97.75C231.993 97.75 231.771 97.666 231.591 97.498C231.411 97.33 231.321 97.078 231.321 96.742C231.321 96.394 231.411 96.142 231.591 95.986C231.771 95.818 231.993 95.734 232.257 95.734ZM240.228 109.18C239.028 109.18 238.068 108.766 237.348 107.938C236.628 107.098 236.268 105.85 236.268 104.194C236.268 102.538 236.628 101.29 237.348 100.45C238.08 99.598 239.046 99.172 240.246 99.172C240.75 99.172 241.188 99.238 241.56 99.37C241.932 99.49 242.256 99.658 242.532 99.874C242.808 100.09 243.042 100.33 243.234 100.594H243.342C243.33 100.438 243.306 100.21 243.27 99.91C243.246 99.598 243.234 99.352 243.234 99.172V95.32H244.818V109H243.54L243.306 107.704H243.234C243.042 107.98 242.808 108.232 242.532 108.46C242.256 108.676 241.926 108.85 241.542 108.982C241.17 109.114 240.732 109.18 240.228 109.18ZM240.48 107.866C241.5 107.866 242.214 107.59 242.622 107.038C243.042 106.474 243.252 105.628 243.252 104.5V104.212C243.252 103.012 243.054 102.094 242.658 101.458C242.262 100.81 241.53 100.486 240.462 100.486C239.61 100.486 238.968 100.828 238.536 101.512C238.116 102.184 237.906 103.09 237.906 104.23C237.906 105.382 238.116 106.276 238.536 106.912C238.968 107.548 239.616 107.866 240.48 107.866ZM252.328 99.172C253.156 99.172 253.864 99.352 254.452 99.712C255.052 100.072 255.508 100.582 255.82 101.242C256.144 101.89 256.306 102.652 256.306 103.528V104.482H249.7C249.724 105.574 250 106.408 250.528 106.984C251.068 107.548 251.818 107.83 252.778 107.83C253.39 107.83 253.93 107.776 254.398 107.668C254.878 107.548 255.37 107.38 255.874 107.164V108.55C255.382 108.766 254.896 108.922 254.416 109.018C253.936 109.126 253.366 109.18 252.706 109.18C251.794 109.18 250.984 108.994 250.276 108.622C249.58 108.25 249.034 107.698 248.638 106.966C248.254 106.222 248.062 105.316 248.062 104.248C248.062 103.192 248.236 102.286 248.584 101.53C248.944 100.774 249.442 100.192 250.078 99.784C250.726 99.376 251.476 99.172 252.328 99.172ZM252.31 100.468C251.554 100.468 250.954 100.714 250.51 101.206C250.078 101.686 249.82 102.358 249.736 103.222H254.65C254.65 102.67 254.566 102.19 254.398 101.782C254.23 101.374 253.972 101.056 253.624 100.828C253.288 100.588 252.85 100.468 252.31 100.468ZM264.728 109H263.108V96.148H270.29V97.57H264.728V102.124H269.948V103.546H264.728V109ZM277.446 99.172C277.626 99.172 277.818 99.184 278.022 99.208C278.238 99.22 278.424 99.244 278.58 99.28L278.382 100.738C278.226 100.702 278.052 100.672 277.86 100.648C277.68 100.624 277.506 100.612 277.338 100.612C276.966 100.612 276.612 100.69 276.276 100.846C275.94 101.002 275.64 101.224 275.376 101.512C275.112 101.788 274.902 102.124 274.746 102.52C274.602 102.916 274.53 103.36 274.53 103.852V109H272.946V99.352H274.242L274.422 101.116H274.494C274.698 100.756 274.944 100.432 275.232 100.144C275.52 99.844 275.85 99.61 276.222 99.442C276.594 99.262 277.002 99.172 277.446 99.172ZM284.476 99.172C285.304 99.172 286.012 99.352 286.6 99.712C287.2 100.072 287.656 100.582 287.968 101.242C288.292 101.89 288.454 102.652 288.454 103.528V104.482H281.848C281.872 105.574 282.148 106.408 282.676 106.984C283.216 107.548 283.966 107.83 284.926 107.83C285.538 107.83 286.078 107.776 286.546 107.668C287.026 107.548 287.518 107.38 288.022 107.164V108.55C287.53 108.766 287.044 108.922 286.564 109.018C286.084 109.126 285.514 109.18 284.854 109.18C283.942 109.18 283.132 108.994 282.424 108.622C281.728 108.25 281.182 107.698 280.786 106.966C280.402 106.222 280.21 105.316 280.21 104.248C280.21 103.192 280.384 102.286 280.732 101.53C281.092 100.774 281.59 100.192 282.226 99.784C282.874 99.376 283.624 99.172 284.476 99.172ZM284.458 100.468C283.702 100.468 283.102 100.714 282.658 101.206C282.226 101.686 281.968 102.358 281.884 103.222H286.798C286.798 102.67 286.714 102.19 286.546 101.782C286.378 101.374 286.12 101.056 285.772 100.828C285.436 100.588 284.998 100.468 284.458 100.468ZM295.356 99.172C296.184 99.172 296.892 99.352 297.48 99.712C298.08 100.072 298.536 100.582 298.848 101.242C299.172 101.89 299.334 102.652 299.334 103.528V104.482H292.728C292.752 105.574 293.028 106.408 293.556 106.984C294.096 107.548 294.846 107.83 295.806 107.83C296.418 107.83 296.958 107.776 297.426 107.668C297.906 107.548 298.398 107.38 298.902 107.164V108.55C298.41 108.766 297.924 108.922 297.444 109.018C296.964 109.126 296.394 109.18 295.734 109.18C294.822 109.18 294.012 108.994 293.304 108.622C292.608 108.25 292.062 107.698 291.666 106.966C291.282 106.222 291.09 105.316 291.09 104.248C291.09 103.192 291.264 102.286 291.612 101.53C291.972 100.774 292.47 100.192 293.106 99.784C293.754 99.376 294.504 99.172 295.356 99.172ZM295.338 100.468C294.582 100.468 293.982 100.714 293.538 101.206C293.106 101.686 292.848 102.358 292.764 103.222H297.678C297.678 102.67 297.594 102.19 297.426 101.782C297.258 101.374 297 101.056 296.652 100.828C296.316 100.588 295.878 100.468 295.338 100.468ZM304.094 109H302.51V95.32H304.094V109ZM306.359 99.352H308.051L310.139 104.842C310.259 105.166 310.367 105.478 310.463 105.778C310.571 106.078 310.667 106.372 310.751 106.66C310.835 106.936 310.901 107.206 310.949 107.47H311.021C311.093 107.17 311.207 106.78 311.363 106.3C311.519 105.808 311.681 105.316 311.849 104.824L313.811 99.352H315.521L311.363 110.332C311.135 110.932 310.865 111.454 310.553 111.898C310.253 112.354 309.881 112.702 309.437 112.942C309.005 113.194 308.477 113.32 307.853 113.32C307.565 113.32 307.313 113.302 307.097 113.266C306.881 113.242 306.695 113.212 306.539 113.176V111.916C306.671 111.94 306.827 111.964 307.007 111.988C307.199 112.012 307.397 112.024 307.601 112.024C307.973 112.024 308.291 111.952 308.555 111.808C308.831 111.676 309.065 111.478 309.257 111.214C309.449 110.962 309.611 110.662 309.743 110.314L310.247 109.036L306.359 99.352ZM318.972 107.11C318.864 107.53 318.726 107.986 318.558 108.478C318.39 108.97 318.204 109.456 318 109.936C317.808 110.428 317.616 110.89 317.424 111.322H316.254C316.374 110.866 316.488 110.374 316.596 109.846C316.716 109.33 316.824 108.82 316.92 108.316C317.016 107.8 317.094 107.332 317.154 106.912H318.846L318.972 107.11ZM329.754 96.148C330.822 96.148 331.698 96.286 332.382 96.562C333.078 96.826 333.594 97.228 333.93 97.768C334.266 98.308 334.434 98.986 334.434 99.802C334.434 100.486 334.308 101.056 334.056 101.512C333.804 101.968 333.48 102.334 333.084 102.61C332.7 102.874 332.292 103.084 331.86 103.24L335.388 109H333.498L330.384 103.69H327.828V109H326.208V96.148H329.754ZM329.664 97.552H327.828V102.322H329.754C330.45 102.322 331.02 102.232 331.464 102.052C331.908 101.86 332.232 101.584 332.436 101.224C332.652 100.864 332.76 100.414 332.76 99.874C332.76 99.31 332.646 98.86 332.418 98.524C332.202 98.188 331.866 97.942 331.41 97.786C330.954 97.63 330.372 97.552 329.664 97.552ZM341.635 99.172C342.463 99.172 343.171 99.352 343.759 99.712C344.359 100.072 344.815 100.582 345.127 101.242C345.451 101.89 345.613 102.652 345.613 103.528V104.482H339.007C339.031 105.574 339.307 106.408 339.835 106.984C340.375 107.548 341.125 107.83 342.085 107.83C342.697 107.83 343.237 107.776 343.705 107.668C344.185 107.548 344.677 107.38 345.181 107.164V108.55C344.689 108.766 344.203 108.922 343.723 109.018C343.243 109.126 342.673 109.18 342.013 109.18C341.101 109.18 340.291 108.994 339.583 108.622C338.887 108.25 338.341 107.698 337.945 106.966C337.561 106.222 337.369 105.316 337.369 104.248C337.369 103.192 337.543 102.286 337.891 101.53C338.251 100.774 338.749 100.192 339.385 99.784C340.033 99.376 340.783 99.172 341.635 99.172ZM341.617 100.468C340.861 100.468 340.261 100.714 339.817 101.206C339.385 101.686 339.127 102.358 339.043 103.222H343.957C343.957 102.67 343.873 102.19 343.705 101.782C343.537 101.374 343.279 101.056 342.931 100.828C342.595 100.588 342.157 100.468 341.617 100.468ZM353.433 99.172C354.585 99.172 355.455 99.454 356.043 100.018C356.631 100.57 356.925 101.47 356.925 102.718V109H355.359V102.826C355.359 102.046 355.185 101.464 354.837 101.08C354.489 100.696 353.943 100.504 353.199 100.504C352.131 100.504 351.393 100.804 350.985 101.404C350.577 102.004 350.373 102.868 350.373 103.996V109H348.789V99.352H350.067L350.301 100.666H350.391C350.607 100.33 350.871 100.054 351.183 99.838C351.507 99.61 351.861 99.442 352.245 99.334C352.629 99.226 353.025 99.172 353.433 99.172ZM363.858 107.884C364.098 107.884 364.344 107.866 364.596 107.83C364.848 107.782 365.052 107.734 365.208 107.686V108.892C365.04 108.976 364.8 109.042 364.488 109.09C364.176 109.15 363.876 109.18 363.588 109.18C363.084 109.18 362.616 109.096 362.184 108.928C361.764 108.748 361.422 108.442 361.158 108.01C360.894 107.578 360.762 106.972 360.762 106.192V100.576H359.394V99.82L360.78 99.19L361.41 97.138H362.346V99.352H365.136V100.576H362.346V106.156C362.346 106.744 362.484 107.182 362.76 107.47C363.048 107.746 363.414 107.884 363.858 107.884ZM378.667 109H371.485V96.148H378.667V97.57H373.105V101.584H378.343V102.988H373.105V107.578H378.667V109ZM385.645 99.19C386.821 99.19 387.691 99.448 388.255 99.964C388.819 100.48 389.101 101.302 389.101 102.43V109H387.949L387.643 107.632H387.571C387.295 107.98 387.007 108.274 386.707 108.514C386.419 108.742 386.083 108.91 385.699 109.018C385.327 109.126 384.871 109.18 384.331 109.18C383.755 109.18 383.233 109.078 382.765 108.874C382.309 108.67 381.949 108.358 381.685 107.938C381.421 107.506 381.289 106.966 381.289 106.318C381.289 105.358 381.667 104.62 382.423 104.104C383.179 103.576 384.343 103.288 385.915 103.24L387.553 103.186V102.61C387.553 101.806 387.379 101.248 387.031 100.936C386.683 100.624 386.191 100.468 385.555 100.468C385.051 100.468 384.571 100.546 384.115 100.702C383.659 100.846 383.233 101.014 382.837 101.206L382.351 100.018C382.771 99.79 383.269 99.598 383.845 99.442C384.421 99.274 385.021 99.19 385.645 99.19ZM386.113 104.338C384.913 104.386 384.079 104.578 383.611 104.914C383.155 105.25 382.927 105.724 382.927 106.336C382.927 106.876 383.089 107.272 383.413 107.524C383.749 107.776 384.175 107.902 384.691 107.902C385.507 107.902 386.185 107.68 386.725 107.236C387.265 106.78 387.535 106.084 387.535 105.148V104.284L386.113 104.338ZM399.083 106.336C399.083 106.96 398.927 107.482 398.615 107.902C398.303 108.322 397.859 108.64 397.283 108.856C396.707 109.072 396.023 109.18 395.231 109.18C394.559 109.18 393.977 109.126 393.485 109.018C393.005 108.91 392.579 108.76 392.207 108.568V107.128C392.591 107.32 393.053 107.5 393.593 107.668C394.145 107.824 394.703 107.902 395.267 107.902C396.071 107.902 396.653 107.776 397.013 107.524C397.373 107.26 397.553 106.912 397.553 106.48C397.553 106.24 397.487 106.024 397.355 105.832C397.223 105.64 396.983 105.448 396.635 105.256C396.299 105.064 395.813 104.848 395.177 104.608C394.553 104.368 394.019 104.128 393.575 103.888C393.131 103.648 392.789 103.36 392.549 103.024C392.309 102.688 392.189 102.256 392.189 101.728C392.189 100.912 392.519 100.282 393.179 99.838C393.851 99.394 394.727 99.172 395.807 99.172C396.395 99.172 396.941 99.232 397.445 99.352C397.961 99.46 398.441 99.616 398.885 99.82L398.345 101.08C398.081 100.96 397.799 100.858 397.499 100.774C397.211 100.678 396.917 100.606 396.617 100.558C396.317 100.498 396.011 100.468 395.699 100.468C395.051 100.468 394.553 100.576 394.205 100.792C393.869 100.996 393.701 101.278 393.701 101.638C393.701 101.902 393.779 102.13 393.935 102.322C394.091 102.502 394.349 102.682 394.709 102.862C395.081 103.03 395.573 103.234 396.185 103.474C396.797 103.702 397.319 103.936 397.751 104.176C398.183 104.416 398.513 104.71 398.741 105.058C398.969 105.394 399.083 105.82 399.083 106.336ZM403.718 99.352V109H402.134V99.352H403.718ZM402.944 95.734C403.184 95.734 403.394 95.818 403.574 95.986C403.766 96.142 403.862 96.394 403.862 96.742C403.862 97.078 403.766 97.33 403.574 97.498C403.394 97.666 403.184 97.75 402.944 97.75C402.68 97.75 402.458 97.666 402.278 97.498C402.098 97.33 402.008 97.078 402.008 96.742C402.008 96.394 402.098 96.142 402.278 95.986C402.458 95.818 402.68 95.734 402.944 95.734ZM409.079 109H407.495V95.32H409.079V109ZM411.344 99.352H413.036L415.124 104.842C415.244 105.166 415.352 105.478 415.448 105.778C415.556 106.078 415.652 106.372 415.736 106.66C415.82 106.936 415.886 107.206 415.934 107.47H416.006C416.078 107.17 416.192 106.78 416.348 106.3C416.504 105.808 416.666 105.316 416.834 104.824L418.796 99.352H420.506L416.348 110.332C416.12 110.932 415.85 111.454 415.538 111.898C415.238 112.354 414.866 112.702 414.422 112.942C413.99 113.194 413.462 113.32 412.838 113.32C412.55 113.32 412.298 113.302 412.082 113.266C411.866 113.242 411.68 113.212 411.524 113.176V111.916C411.656 111.94 411.812 111.964 411.992 111.988C412.184 112.012 412.382 112.024 412.586 112.024C412.958 112.024 413.276 111.952 413.54 111.808C413.816 111.676 414.05 111.478 414.242 111.214C414.434 110.962 414.596 110.662 414.728 110.314L415.232 109.036L411.344 99.352Z" fill="white"/>
<path d="M129.802 111.298H126.008V112.165H129.802V111.298Z" fill="white"/>
<path d="M129.802 113.515H126.008V114.381H129.802V113.515Z" fill="white"/>
<path d="M151.46 119.916C149.06 119.916 147.12 117.968 147.12 115.575C147.12 113.182 149.067 111.235 151.46 111.235V119.922V119.916Z" fill="white"/>
<path d="M151.46 119.916C153.857 119.916 155.8 117.972 155.8 115.575C155.8 113.178 153.857 111.235 151.46 111.235C149.063 111.235 147.12 113.178 147.12 115.575C147.12 117.972 149.063 119.916 151.46 119.916Z" stroke="white" stroke-width="0.5" stroke-miterlimit="10"/>
<path d="M134.482 119.916C132.082 119.916 130.141 117.968 130.141 115.575C130.141 113.182 132.088 111.235 134.482 111.235V119.922V119.916Z" fill="white"/>
<path d="M134.482 119.916C136.879 119.916 138.822 117.972 138.822 115.575C138.822 113.178 136.879 111.235 134.482 111.235C132.084 111.235 130.141 113.178 130.141 115.575C130.141 117.972 132.084 119.916 134.482 119.916Z" stroke="white" stroke-width="0.5" stroke-miterlimit="10"/>
<path d="M126.008 111.298H122.013V119.916H126.008V111.298Z" fill="white"/>
<path d="M143.577 111.298H139.582V119.916H143.577V111.298Z" fill="white"/>
<path d="M172.67 73.1228C170.097 73.8275 167.717 73.3821 165.443 73.5749C163.708 74.4923 163.383 75.9217 163.376 77.7233C163.343 86.8644 164.646 95.7528 167.963 104.309C168.189 104.901 168.236 105.559 168.402 106.356C166.022 105.22 164.998 103.132 164.007 101.118C161.056 95.0681 159.254 88.6261 157.838 82.0778C152.161 81.2135 148.903 81.9381 146.197 87.0904C143.372 92.482 139.356 96.8896 134.41 100.506C136.126 94.4963 139.729 89.3308 142.102 83.1016C133.247 84.3846 125.156 86.8178 117.258 90.0488C109.46 93.2399 102.48 97.9533 95.0272 101.862C102.859 91.7108 114.081 86.2328 125.349 79.9903C122.816 79.0994 120.682 79.0994 118.794 78.2285C116.959 77.3842 115.038 76.7194 113.549 75.2303C110.863 72.5378 110.304 69.3334 111.927 65.9296C113.914 61.7613 117.225 58.8228 120.948 56.3431C127.111 52.2413 133.938 50.6125 141.298 51.4501C146.164 52.0086 150.067 54.608 152.433 58.6766C156.469 65.6039 162.678 69.2271 169.884 71.6868C170.815 72.006 171.739 72.2852 172.65 73.0962L172.67 73.1228ZM157.831 74.9909C158.024 73.3954 157.2 72.8901 156.296 72.4381C153.497 71.022 150.765 69.473 148.411 67.3789C145.001 64.3474 141.098 62.9181 136.524 63.4632C134.59 63.6892 132.589 63.656 130.754 64.2078C129.577 64.5601 127.942 63.9618 127.104 65.451C127.623 66.0559 128.281 66.1756 128.886 66.3883C135.76 68.7617 142.907 70.3173 148.996 74.7915C151.429 76.5798 154.813 76.2208 157.825 74.9976L157.831 74.9909Z" fill="white"/>
<path d="M131.286 46.9896C119.213 49.9613 110.471 56.3035 106.336 68.157C86.7437 69.2606 67.1386 68.5359 47.5068 68.6157C49.4281 67.0734 51.7815 66.6413 53.9023 65.6906C59.8257 63.0314 66.0483 61.1699 72.1379 58.9627C77.6226 56.975 83.1936 55.1999 88.8711 53.764C92.8865 52.7468 96.8421 51.497 100.864 50.4998C106.289 49.1569 111.747 48.0599 117.278 47.2555C121.094 46.7037 124.904 46.1785 128.773 46.3514C129.404 46.378 130.069 46.1918 131.286 46.9896Z" fill="white"/>
<path d="M87.0894 73.9741C79.0785 78.6344 73.9595 85.2891 72.5568 94.6828H20.0304C19.9972 94.5764 19.9573 94.47 19.9241 94.357C23.7866 92.7482 27.6292 91.0862 31.5116 89.5305C39.7685 86.2398 48.0786 83.0952 56.5416 80.3695C62.8772 78.3286 69.246 76.4073 75.801 75.091C79.4774 74.353 83.1272 73.7281 87.0961 73.9674L87.0894 73.9741Z" fill="white"/>
<path d="M72.7362 100.486C74.0858 107.573 76.7716 113.796 82.3759 118.928H26.0735C40.666 110.718 56.5017 105.712 72.7362 100.486Z" fill="white"/>
<path d="M174.265 76.5668C178.5 74.5524 189.503 78.0958 195.293 85.5217C201.057 92.9077 201.476 103.737 195.858 111.629C189.908 119.992 179.837 123.456 171.42 120.743C160.172 117.113 153.098 105.233 154.348 97.5613C155.212 99.3297 155.511 100.958 156.169 102.428C158.869 108.431 163.389 112.732 169.246 115.132C179.617 119.374 189.37 115.465 193.365 104.136C196.37 95.6068 192.135 87.1239 185.68 81.9184C182.602 79.4387 179.225 77.4642 175.15 77.0321C174.857 76.9989 174.591 76.7463 174.265 76.5734V76.5668Z" fill="white"/>
<path d="M121.706 105.074C118.475 114.321 110.59 120.404 99.7207 120.677C89.8949 120.923 82.0967 115.298 78.653 105.04C75.349 95.208 79.0253 85.1495 87.4617 79.6249C95.4527 74.3996 106.901 74.7187 110.444 78.3684C107.938 77.8233 105.697 77.8366 103.457 77.8964C98.431 78.0294 94.0699 79.8842 90.1741 82.9822C87.0429 85.4819 84.6629 88.5067 83.32 92.3227C80.9799 98.9708 83.1205 104.549 87.4817 109.541C93.6045 116.548 104.833 117.167 112.405 112.932C115.683 111.097 118.681 108.896 120.901 105.785C121.068 105.552 121.347 105.386 121.713 105.074H121.706Z" fill="white"/>
<path d="M143.325 41.4516C148.045 38.9918 152.54 38.8056 157.047 39.1114C159.633 39.2909 161.501 40.933 162.552 43.2665C163.549 45.4869 163.163 47.5611 161.481 49.4226C160.477 50.5328 159.713 51.8491 158.789 53.0258C157.3 54.9272 155.717 55.007 154.035 53.2585C153.497 52.7001 153.065 52.0286 152.633 51.3771C150.16 47.6409 148.158 43.4925 143.332 41.4449L143.325 41.4516Z" fill="white"/>
<path d="M174.654 74.5488C172.032 75.2669 169.607 74.813 167.29 75.0094C165.522 75.9443 165.19 77.4009 165.183 79.2368C165.149 88.5519 166.477 97.6096 169.857 106.329C170.088 106.931 170.135 107.602 170.304 108.415C167.879 107.257 166.836 105.129 165.826 103.077C162.819 96.9118 160.983 90.3472 159.54 83.6742C153.754 82.7935 150.435 83.5319 147.677 88.7822C144.798 94.2765 140.706 98.768 135.666 102.453C137.414 96.3292 141.086 91.0653 143.504 84.7175C134.48 86.025 126.236 88.5045 118.187 91.797C110.241 95.0488 103.127 99.852 95.533 103.835C103.513 93.4906 114.949 87.9083 126.432 81.547C123.851 80.6392 121.676 80.6392 119.752 79.7517C117.882 78.8913 115.925 78.2138 114.407 76.6963C111.67 73.9526 111.101 70.6872 112.754 67.2186C114.78 62.9709 118.153 59.9765 121.947 57.4496C128.227 53.2697 135.185 51.6099 142.684 52.4635C147.643 53.0326 151.62 55.6814 154.032 59.8275C158.144 66.8867 164.472 70.5788 171.815 73.0854C172.764 73.4106 173.705 73.6952 174.633 74.5217L174.654 74.5488ZM159.533 76.4524C159.729 74.8265 158.889 74.3117 157.968 73.851C155.116 72.408 152.331 70.8295 149.933 68.6955C146.458 65.6063 142.481 64.1497 137.82 64.7052C135.849 64.9356 133.81 64.9017 131.94 65.464C130.741 65.8231 129.074 65.2133 128.221 66.7308C128.749 67.3473 129.42 67.4693 130.036 67.6861C137.041 70.1046 144.324 71.6899 150.529 76.2492C153.009 78.0716 156.457 77.7057 159.526 76.4592L159.533 76.4524Z" fill="white"/>
<path d="M132.482 47.9174C120.179 50.9457 111.27 57.4087 107.057 69.4878C87.0917 70.6124 67.1134 69.874 47.1079 69.9553C49.0658 68.3836 51.464 67.9432 53.6251 66.9744C59.6613 64.2646 66.0023 62.3677 72.2079 60.1185C77.797 58.0929 83.4741 56.2841 89.2596 54.8208C93.3515 53.7842 97.3824 52.5106 101.481 51.4944C107.009 50.1259 112.571 49.0081 118.208 48.1884C122.096 47.6261 125.978 47.0909 129.921 47.2671C130.565 47.2942 131.242 47.1045 132.482 47.9174Z" fill="white"/>
<path d="M87.444 75.4156C79.2806 80.1646 74.0641 86.946 72.6347 96.5186H19.1084C19.0745 96.4102 19.0339 96.3018 19 96.1866C22.9361 94.5472 26.8518 92.8535 30.8082 91.2683C39.2223 87.9148 47.6905 84.7104 56.3146 81.9328C62.7708 79.853 69.2609 77.8951 75.9407 76.5538C79.6871 75.8018 83.4064 75.165 87.4508 75.4089L87.444 75.4156Z" fill="white"/>
<path d="M72.8176 102.433C74.1928 109.654 76.9298 115.995 82.6408 121.225H25.2665C40.1368 112.859 56.2739 107.757 72.8176 102.433Z" fill="white"/>
<path d="M176.28 78.0578C180.595 76.0051 191.807 79.616 197.708 87.1833C203.581 94.7099 204.008 105.746 198.284 113.787C192.22 122.31 181.957 125.839 173.38 123.075C161.917 119.376 154.709 107.27 155.983 99.4521C156.864 101.254 157.168 102.914 157.839 104.411C160.59 110.529 165.196 114.912 171.165 117.357C181.733 121.68 191.672 117.696 195.743 106.152C198.805 97.4604 194.49 88.8159 187.912 83.5114C184.775 80.9845 181.334 78.9724 177.181 78.5321C176.883 78.4982 176.612 78.2408 176.28 78.0646V78.0578Z" fill="white"/>
<path d="M122.719 107.107C119.427 116.531 111.392 122.73 100.316 123.007C90.3029 123.258 82.3562 117.527 78.847 107.073C75.48 97.0538 79.2264 86.8038 87.8234 81.1741C95.9665 75.8492 107.632 76.1744 111.243 79.8937C108.689 79.3381 106.406 79.3517 104.123 79.4127C99.0015 79.5482 94.5573 81.4383 90.5874 84.5952C87.3966 87.1425 84.9712 90.225 83.6028 94.1136C81.2181 100.888 83.3995 106.572 87.8437 111.66C94.0831 118.8 105.525 119.43 113.242 115.115C116.582 113.245 119.637 111.003 121.9 107.832C122.069 107.595 122.354 107.426 122.726 107.107H122.719Z" fill="white"/>
<path d="M144.751 42.2741C149.561 39.7675 154.14 39.5778 158.733 39.8894C161.369 40.0724 163.272 41.7457 164.343 44.1236C165.359 46.3863 164.966 48.5 163.252 50.3969C162.229 51.5282 161.45 52.8696 160.508 54.0687C158.991 56.0063 157.379 56.0876 155.665 54.3058C155.116 53.7368 154.675 53.0525 154.235 52.3886C151.715 48.5813 149.676 44.3539 144.757 42.2673L144.751 42.2741Z" fill="white"/>
<path d="M130.43 111.926H126.636V112.793H130.43V111.926Z" fill="white"/>
<path d="M130.43 114.143H126.636V115.01H130.43V114.143Z" fill="white"/>
<path d="M152.088 120.544C149.688 120.544 147.748 118.596 147.748 116.203C147.748 113.81 149.695 111.863 152.088 111.863V120.55V120.544Z" fill="white"/>
<path d="M152.088 120.544C154.485 120.544 156.428 118.6 156.428 116.203C156.428 113.806 154.485 111.863 152.088 111.863C149.691 111.863 147.748 113.806 147.748 116.203C147.748 118.6 149.691 120.544 152.088 120.544Z" stroke="white" stroke-width="0.5" stroke-miterlimit="10"/>
<path d="M135.11 120.544C132.71 120.544 130.769 118.596 130.769 116.203C130.769 113.81 132.716 111.863 135.11 111.863V120.55V120.544Z" fill="white"/>
<path d="M135.11 120.544C137.507 120.544 139.45 118.6 139.45 116.203C139.45 113.806 137.507 111.863 135.11 111.863C132.712 111.863 130.769 113.806 130.769 116.203C130.769 118.6 132.712 120.544 135.11 120.544Z" stroke="white" stroke-width="0.5" stroke-miterlimit="10"/>
<path d="M126.636 111.926H122.641V120.544H126.636V111.926Z" fill="white"/>
<path d="M144.205 111.926H140.21V120.544H144.205V111.926Z" fill="white"/>
</svg>
