<svg width="569" height="164" viewBox="0 0 569 164" fill="none" xmlns="http://www.w3.org/2000/svg">
<path d="M129.802 111.297H126.008V112.164H129.802V111.297Z" fill="white"/>
<path d="M129.802 113.515H126.008V114.381H129.802V113.515Z" fill="white"/>
<path d="M151.46 119.915C149.061 119.915 147.12 117.968 147.12 115.575C147.12 113.182 149.067 111.234 151.46 111.234V119.921V119.915Z" fill="white"/>
<path d="M151.46 119.915C153.857 119.915 155.8 117.972 155.8 115.575C155.8 113.178 153.857 111.234 151.46 111.234C149.063 111.234 147.12 113.178 147.12 115.575C147.12 117.972 149.063 119.915 151.46 119.915Z" stroke="white" stroke-width="0.5" stroke-miterlimit="10"/>
<path d="M134.481 119.915C132.082 119.915 130.141 117.968 130.141 115.575C130.141 113.182 132.088 111.234 134.481 111.234V119.921V119.915Z" fill="white"/>
<path d="M134.481 119.915C136.879 119.915 138.822 117.972 138.822 115.575C138.822 113.178 136.879 111.234 134.481 111.234C132.084 111.234 130.141 113.178 130.141 115.575C130.141 117.972 132.084 119.915 134.481 119.915Z" stroke="white" stroke-width="0.5" stroke-miterlimit="10"/>
<path d="M126.008 111.297H122.013V119.915H126.008V111.297Z" fill="white"/>
<path d="M143.577 111.297H139.582V119.915H143.577V111.297Z" fill="white"/>
<path d="M172.67 73.1233C170.097 73.828 167.717 73.3826 165.444 73.5754C163.708 74.4928 163.383 75.9221 163.376 77.7238C163.343 86.8649 164.646 95.7533 167.963 104.309C168.189 104.901 168.236 105.559 168.402 106.357C166.022 105.22 164.998 103.133 164.008 101.118C161.056 95.0686 159.254 88.6266 157.838 82.0783C152.161 81.214 148.903 81.9386 146.197 87.0909C143.372 92.4825 139.357 96.8901 134.41 100.507C136.126 94.4968 139.729 89.3313 142.102 83.102C133.247 84.3851 125.156 86.8183 117.258 90.0493C109.46 93.2403 102.48 97.9538 95.0273 101.863C102.859 91.7113 114.081 86.2333 125.349 79.9908C122.816 79.0999 120.682 79.0999 118.794 78.229C116.959 77.3847 115.038 76.7199 113.549 75.2307C110.863 72.5383 110.305 69.3339 111.927 65.9301C113.914 61.7618 117.225 58.8233 120.948 56.3436C127.111 52.2418 133.938 50.613 141.298 51.4506C146.164 52.0091 150.067 54.6085 152.433 58.6771C156.469 65.6044 162.678 69.2276 169.884 71.6873C170.815 72.0064 171.739 72.2857 172.65 73.0967L172.67 73.1233ZM157.832 74.9914C158.024 73.3959 157.2 72.8906 156.296 72.4386C153.497 71.0225 150.765 69.4735 148.411 67.3794C145.001 64.3479 141.098 62.9185 136.525 63.4637C134.59 63.6897 132.589 63.6565 130.754 64.2083C129.577 64.5606 127.942 63.9623 127.104 65.4515C127.623 66.0564 128.281 66.1761 128.886 66.3888C135.76 68.7622 142.907 70.3178 148.996 74.792C151.429 76.5803 154.813 76.2213 157.825 74.9981L157.832 74.9914Z" fill="white"/>
<path d="M131.286 46.9891C119.213 49.9608 110.471 56.303 106.336 68.1565C86.7442 69.2601 67.139 68.5355 47.5073 68.6152C49.4286 67.0729 51.782 66.6408 53.9028 65.6901C59.8262 63.0309 66.0488 61.1694 72.1384 58.9623C77.623 56.9745 83.1941 55.1995 88.8716 53.7635C92.887 52.7463 96.8426 51.4965 100.865 50.4993C106.289 49.1564 111.748 48.0594 117.279 47.255C121.095 46.7032 124.904 46.178 128.773 46.3509C129.405 46.3775 130.07 46.1913 131.286 46.9891Z" fill="white"/>
<path d="M87.0897 73.9736C79.0788 78.6339 73.9597 85.2886 72.557 94.6823H20.0307C19.9974 94.5759 19.9576 94.4696 19.9243 94.3565C23.7868 92.7477 27.6294 91.0857 31.5119 89.5301C39.7688 86.2393 48.0788 83.0947 56.5418 80.369C62.8774 78.3281 69.2463 76.4068 75.8013 75.0905C79.4776 74.3525 83.1274 73.7276 87.0963 73.9669L87.0897 73.9736Z" fill="white"/>
<path d="M72.7365 100.486C74.086 107.573 76.7718 113.796 82.3762 118.928H26.0737C40.6662 110.718 56.5019 105.712 72.7365 100.486Z" fill="white"/>
<path d="M174.266 76.5668C178.501 74.5524 189.503 78.0958 195.294 85.5217C201.057 92.9077 201.476 103.737 195.859 111.629C189.909 119.992 179.837 123.456 171.42 120.743C160.172 117.113 153.098 105.233 154.348 97.5613C155.212 99.3297 155.512 100.958 156.17 102.428C158.869 108.431 163.389 112.732 169.246 115.132C179.617 119.374 189.37 115.465 193.366 104.136C196.371 95.6068 192.136 87.1239 185.68 81.9184C182.602 79.4387 179.225 77.4642 175.15 77.0321C174.857 76.9989 174.591 76.7463 174.266 76.5734V76.5668Z" fill="white"/>
<path d="M121.706 105.074C118.475 114.321 110.591 120.404 99.7211 120.677C89.8953 120.923 82.0971 115.298 78.6534 105.04C75.3493 95.208 79.0257 85.1495 87.4621 79.6249C95.4531 74.3996 106.901 74.7187 110.444 78.3684C107.938 77.8233 105.698 77.8366 103.457 77.8964C98.4314 78.0294 94.0703 79.8842 90.1745 82.9822C87.0433 85.4819 84.6633 88.5067 83.3203 92.3227C80.9802 98.9708 83.1209 104.549 87.482 109.541C93.6049 116.548 104.833 117.167 112.406 112.932C115.683 111.097 118.681 108.896 120.902 105.785C121.068 105.552 121.347 105.386 121.713 105.074H121.706Z" fill="white"/>
<path d="M143.326 41.4516C148.046 38.9918 152.54 38.8056 157.047 39.1114C159.633 39.2909 161.501 40.933 162.552 43.2665C163.549 45.4869 163.163 47.5611 161.482 49.4226C160.478 50.5328 159.713 51.8491 158.789 53.0258C157.3 54.9272 155.718 55.007 154.036 53.2585C153.497 52.7001 153.065 52.0286 152.633 51.3771C150.16 47.6409 148.159 43.4925 143.332 41.4449L143.326 41.4516Z" fill="white"/>
<path d="M174.654 74.5488C172.032 75.2669 169.606 74.813 167.29 75.0094C165.521 75.9443 165.189 77.4009 165.183 79.2368C165.149 88.5519 166.477 97.6096 169.857 106.329C170.087 106.931 170.135 107.602 170.304 108.415C167.879 107.257 166.836 105.129 165.826 103.077C162.818 96.9118 160.982 90.3472 159.539 83.6742C153.754 82.7935 150.434 83.5319 147.677 88.7822C144.798 94.2765 140.706 98.768 135.666 102.453C137.413 96.3292 141.085 91.0653 143.504 84.7175C134.48 86.025 126.235 88.5045 118.187 91.797C110.24 95.0488 103.127 99.852 95.5327 103.835C103.513 93.4906 114.949 87.9083 126.432 81.547C123.851 80.6392 121.676 80.6392 119.752 79.7517C117.882 78.8913 115.924 78.2138 114.407 76.6963C111.67 73.9526 111.101 70.6872 112.754 67.2186C114.779 62.9709 118.153 59.9765 121.947 57.4496C128.227 53.2697 135.185 51.6099 142.684 52.4635C147.643 53.0326 151.62 55.6814 154.032 59.8275C158.144 66.8867 164.471 70.5788 171.815 73.0854C172.763 73.4106 173.705 73.6952 174.633 74.5217L174.654 74.5488ZM159.533 76.4524C159.729 74.8265 158.889 74.3117 157.968 73.851C155.116 72.408 152.331 70.8295 149.933 68.6955C146.458 65.6063 142.481 64.1497 137.82 64.7052C135.849 64.9356 133.809 64.9017 131.94 65.464C130.74 65.8231 129.074 65.2133 128.22 66.7308C128.749 67.3473 129.419 67.4693 130.036 67.6861C137.041 70.1046 144.324 71.6899 150.529 76.2492C153.009 78.0716 156.457 77.7057 159.526 76.4592L159.533 76.4524Z" fill="#37B7C3"/>
<path d="M132.482 47.9179C120.179 50.9462 111.27 57.4091 107.057 69.4883C87.0917 70.6129 67.1134 69.8745 47.1079 69.9558C49.0658 68.384 51.464 67.9437 53.6251 66.9749C59.6613 64.2651 66.0023 62.3682 72.2079 60.119C77.797 58.0934 83.4741 56.2846 89.2596 54.8212C93.3515 53.7847 97.3824 52.5111 101.481 51.4949C107.009 50.1264 112.571 49.0086 118.208 48.1889C122.096 47.6266 125.978 47.0914 129.921 47.2675C130.565 47.2946 131.242 47.1049 132.482 47.9179Z" fill="#F45714"/>
<path d="M87.444 75.4161C79.2806 80.1651 74.0641 86.9465 72.6347 96.5191H19.1084C19.0745 96.4107 19.0339 96.3023 19 96.1871C22.9361 94.5477 26.8518 92.854 30.8082 91.2687C39.2223 87.9153 47.6905 84.7109 56.3146 81.9333C62.7708 79.8535 69.2609 77.8956 75.9407 76.5543C79.6871 75.8023 83.4064 75.1655 87.4508 75.4093L87.444 75.4161Z" fill="#071952"/>
<path d="M72.8177 102.434C74.1929 109.655 76.9299 115.996 82.6409 121.226H25.2666C40.1369 112.86 56.2741 107.758 72.8177 102.434Z" fill="#379777"/>
<path d="M176.28 78.0578C180.595 76.0051 191.807 79.616 197.708 87.1833C203.582 94.7099 204.008 105.746 198.284 113.787C192.221 122.31 181.957 125.839 173.38 123.075C161.918 119.376 154.71 107.27 155.983 99.4521C156.864 101.254 157.169 102.914 157.839 104.411C160.59 110.529 165.197 114.912 171.165 117.357C181.734 121.68 191.672 117.696 195.743 106.152C198.806 97.4604 194.49 88.8159 187.912 83.5114C184.775 80.9845 181.334 78.9724 177.181 78.5321C176.883 78.4982 176.612 78.2408 176.28 78.0646V78.0578Z" fill="#0E3850"/>
<path d="M122.72 107.107C119.427 116.531 111.393 122.73 100.316 123.007C90.3031 123.258 82.3565 117.527 78.8472 107.073C75.4802 97.0538 79.2266 86.8038 87.8236 81.1741C95.9667 75.8492 107.633 76.1744 111.243 79.8937C108.689 79.3381 106.406 79.3517 104.123 79.4127C99.0017 79.5482 94.5576 81.4383 90.5877 84.5952C87.3968 87.1425 84.9715 90.225 83.603 94.1136C81.2183 100.888 83.3998 106.572 87.8439 111.66C94.0834 118.8 105.526 119.43 113.242 115.115C116.582 113.245 119.637 111.003 121.9 107.832C122.069 107.595 122.354 107.426 122.726 107.107H122.72Z" fill="#0E3850"/>
<path d="M144.75 42.2746C149.56 39.768 154.14 39.5783 158.733 39.8899C161.369 40.0728 163.272 41.7462 164.343 44.1241C165.359 46.3868 164.966 48.5005 163.252 50.3974C162.229 51.5287 161.45 52.8701 160.508 54.0692C158.991 56.0068 157.378 56.0881 155.664 54.3063C155.116 53.7373 154.675 53.053 154.235 52.3891C151.715 48.5818 149.676 44.3544 144.757 42.2678L144.75 42.2746Z" fill="#0E3850"/>
<path d="M130.43 111.927H126.636V112.794H130.43V111.927Z" fill="#102C57"/>
<path d="M130.43 114.144H126.636V115.01H130.43V114.144Z" fill="#102C57"/>
<path d="M152.088 120.544C149.688 120.544 147.748 118.597 147.748 116.204C147.748 113.81 149.695 111.863 152.088 111.863V120.55V120.544Z" fill="#102C57"/>
<path d="M152.088 120.544C154.485 120.544 156.428 118.601 156.428 116.204C156.428 113.807 154.485 111.863 152.088 111.863C149.691 111.863 147.748 113.807 147.748 116.204C147.748 118.601 149.691 120.544 152.088 120.544Z" stroke="#0E3850" stroke-width="0.5" stroke-miterlimit="10"/>
<path d="M135.109 120.544C132.71 120.544 130.769 118.597 130.769 116.204C130.769 113.81 132.716 111.863 135.109 111.863V120.55V120.544Z" fill="#102C57"/>
<path d="M135.109 120.544C137.507 120.544 139.45 118.601 139.45 116.204C139.45 113.807 137.507 111.863 135.109 111.863C132.712 111.863 130.769 113.807 130.769 116.204C130.769 118.601 132.712 120.544 135.109 120.544Z" stroke="#0E3850" stroke-width="0.5" stroke-miterlimit="10"/>
<path d="M126.636 111.927H122.641V120.545H126.636V111.927Z" fill="#102C57"/>
<path d="M144.205 111.927H140.21V120.545H144.205V111.927Z" fill="#102C57"/>
<path d="M223.292 96.148C224.36 96.148 225.236 96.286 225.92 96.562C226.616 96.826 227.132 97.228 227.468 97.768C227.804 98.308 227.972 98.986 227.972 99.802C227.972 100.486 227.846 101.056 227.594 101.512C227.342 101.968 227.018 102.334 226.622 102.61C226.238 102.874 225.83 103.084 225.398 103.24L228.926 109H227.036L223.922 103.69H221.366V109H219.746V96.148H223.292ZM223.202 97.552H221.366V102.322H223.292C223.988 102.322 224.558 102.232 225.002 102.052C225.446 101.86 225.77 101.584 225.974 101.224C226.19 100.864 226.298 100.414 226.298 99.874C226.298 99.31 226.184 98.86 225.956 98.524C225.74 98.188 225.404 97.942 224.948 97.786C224.492 97.63 223.91 97.552 223.202 97.552ZM233.031 99.352V109H231.447V99.352H233.031ZM232.257 95.734C232.497 95.734 232.707 95.818 232.887 95.986C233.079 96.142 233.175 96.394 233.175 96.742C233.175 97.078 233.079 97.33 232.887 97.498C232.707 97.666 232.497 97.75 232.257 97.75C231.993 97.75 231.771 97.666 231.591 97.498C231.411 97.33 231.321 97.078 231.321 96.742C231.321 96.394 231.411 96.142 231.591 95.986C231.771 95.818 231.993 95.734 232.257 95.734ZM240.228 109.18C239.028 109.18 238.068 108.766 237.348 107.938C236.628 107.098 236.268 105.85 236.268 104.194C236.268 102.538 236.628 101.29 237.348 100.45C238.08 99.598 239.046 99.172 240.246 99.172C240.75 99.172 241.188 99.238 241.56 99.37C241.932 99.49 242.256 99.658 242.532 99.874C242.808 100.09 243.042 100.33 243.234 100.594H243.342C243.33 100.438 243.306 100.21 243.27 99.91C243.246 99.598 243.234 99.352 243.234 99.172V95.32H244.818V109H243.54L243.306 107.704H243.234C243.042 107.98 242.808 108.232 242.532 108.46C242.256 108.676 241.926 108.85 241.542 108.982C241.17 109.114 240.732 109.18 240.228 109.18ZM240.48 107.866C241.5 107.866 242.214 107.59 242.622 107.038C243.042 106.474 243.252 105.628 243.252 104.5V104.212C243.252 103.012 243.054 102.094 242.658 101.458C242.262 100.81 241.53 100.486 240.462 100.486C239.61 100.486 238.968 100.828 238.536 101.512C238.116 102.184 237.906 103.09 237.906 104.23C237.906 105.382 238.116 106.276 238.536 106.912C238.968 107.548 239.616 107.866 240.48 107.866ZM252.328 99.172C253.156 99.172 253.864 99.352 254.452 99.712C255.052 100.072 255.508 100.582 255.82 101.242C256.144 101.89 256.306 102.652 256.306 103.528V104.482H249.7C249.724 105.574 250 106.408 250.528 106.984C251.068 107.548 251.818 107.83 252.778 107.83C253.39 107.83 253.93 107.776 254.398 107.668C254.878 107.548 255.37 107.38 255.874 107.164V108.55C255.382 108.766 254.896 108.922 254.416 109.018C253.936 109.126 253.366 109.18 252.706 109.18C251.794 109.18 250.984 108.994 250.276 108.622C249.58 108.25 249.034 107.698 248.638 106.966C248.254 106.222 248.062 105.316 248.062 104.248C248.062 103.192 248.236 102.286 248.584 101.53C248.944 100.774 249.442 100.192 250.078 99.784C250.726 99.376 251.476 99.172 252.328 99.172ZM252.31 100.468C251.554 100.468 250.954 100.714 250.51 101.206C250.078 101.686 249.82 102.358 249.736 103.222H254.65C254.65 102.67 254.566 102.19 254.398 101.782C254.23 101.374 253.972 101.056 253.624 100.828C253.288 100.588 252.85 100.468 252.31 100.468ZM264.728 109H263.108V96.148H270.29V97.57H264.728V102.124H269.948V103.546H264.728V109ZM277.446 99.172C277.626 99.172 277.818 99.184 278.022 99.208C278.238 99.22 278.424 99.244 278.58 99.28L278.382 100.738C278.226 100.702 278.052 100.672 277.86 100.648C277.68 100.624 277.506 100.612 277.338 100.612C276.966 100.612 276.612 100.69 276.276 100.846C275.94 101.002 275.64 101.224 275.376 101.512C275.112 101.788 274.902 102.124 274.746 102.52C274.602 102.916 274.53 103.36 274.53 103.852V109H272.946V99.352H274.242L274.422 101.116H274.494C274.698 100.756 274.944 100.432 275.232 100.144C275.52 99.844 275.85 99.61 276.222 99.442C276.594 99.262 277.002 99.172 277.446 99.172ZM284.476 99.172C285.304 99.172 286.012 99.352 286.6 99.712C287.2 100.072 287.656 100.582 287.968 101.242C288.292 101.89 288.454 102.652 288.454 103.528V104.482H281.848C281.872 105.574 282.148 106.408 282.676 106.984C283.216 107.548 283.966 107.83 284.926 107.83C285.538 107.83 286.078 107.776 286.546 107.668C287.026 107.548 287.518 107.38 288.022 107.164V108.55C287.53 108.766 287.044 108.922 286.564 109.018C286.084 109.126 285.514 109.18 284.854 109.18C283.942 109.18 283.132 108.994 282.424 108.622C281.728 108.25 281.182 107.698 280.786 106.966C280.402 106.222 280.21 105.316 280.21 104.248C280.21 103.192 280.384 102.286 280.732 101.53C281.092 100.774 281.59 100.192 282.226 99.784C282.874 99.376 283.624 99.172 284.476 99.172ZM284.458 100.468C283.702 100.468 283.102 100.714 282.658 101.206C282.226 101.686 281.968 102.358 281.884 103.222H286.798C286.798 102.67 286.714 102.19 286.546 101.782C286.378 101.374 286.12 101.056 285.772 100.828C285.436 100.588 284.998 100.468 284.458 100.468ZM295.356 99.172C296.184 99.172 296.892 99.352 297.48 99.712C298.08 100.072 298.536 100.582 298.848 101.242C299.172 101.89 299.334 102.652 299.334 103.528V104.482H292.728C292.752 105.574 293.028 106.408 293.556 106.984C294.096 107.548 294.846 107.83 295.806 107.83C296.418 107.83 296.958 107.776 297.426 107.668C297.906 107.548 298.398 107.38 298.902 107.164V108.55C298.41 108.766 297.924 108.922 297.444 109.018C296.964 109.126 296.394 109.18 295.734 109.18C294.822 109.18 294.012 108.994 293.304 108.622C292.608 108.25 292.062 107.698 291.666 106.966C291.282 106.222 291.09 105.316 291.09 104.248C291.09 103.192 291.264 102.286 291.612 101.53C291.972 100.774 292.47 100.192 293.106 99.784C293.754 99.376 294.504 99.172 295.356 99.172ZM295.338 100.468C294.582 100.468 293.982 100.714 293.538 101.206C293.106 101.686 292.848 102.358 292.764 103.222H297.678C297.678 102.67 297.594 102.19 297.426 101.782C297.258 101.374 297 101.056 296.652 100.828C296.316 100.588 295.878 100.468 295.338 100.468ZM304.094 109H302.51V95.32H304.094V109ZM306.359 99.352H308.051L310.139 104.842C310.259 105.166 310.367 105.478 310.463 105.778C310.571 106.078 310.667 106.372 310.751 106.66C310.835 106.936 310.901 107.206 310.949 107.47H311.021C311.093 107.17 311.207 106.78 311.363 106.3C311.519 105.808 311.681 105.316 311.849 104.824L313.811 99.352H315.521L311.363 110.332C311.135 110.932 310.865 111.454 310.553 111.898C310.253 112.354 309.881 112.702 309.437 112.942C309.005 113.194 308.477 113.32 307.853 113.32C307.565 113.32 307.313 113.302 307.097 113.266C306.881 113.242 306.695 113.212 306.539 113.176V111.916C306.671 111.94 306.827 111.964 307.007 111.988C307.199 112.012 307.397 112.024 307.601 112.024C307.973 112.024 308.291 111.952 308.555 111.808C308.831 111.676 309.065 111.478 309.257 111.214C309.449 110.962 309.611 110.662 309.743 110.314L310.247 109.036L306.359 99.352ZM318.972 107.11C318.864 107.53 318.726 107.986 318.558 108.478C318.39 108.97 318.204 109.456 318 109.936C317.808 110.428 317.616 110.89 317.424 111.322H316.254C316.374 110.866 316.488 110.374 316.596 109.846C316.716 109.33 316.824 108.82 316.92 108.316C317.016 107.8 317.094 107.332 317.154 106.912H318.846L318.972 107.11ZM329.754 96.148C330.822 96.148 331.698 96.286 332.382 96.562C333.078 96.826 333.594 97.228 333.93 97.768C334.266 98.308 334.434 98.986 334.434 99.802C334.434 100.486 334.308 101.056 334.056 101.512C333.804 101.968 333.48 102.334 333.084 102.61C332.7 102.874 332.292 103.084 331.86 103.24L335.388 109H333.498L330.384 103.69H327.828V109H326.208V96.148H329.754ZM329.664 97.552H327.828V102.322H329.754C330.45 102.322 331.02 102.232 331.464 102.052C331.908 101.86 332.232 101.584 332.436 101.224C332.652 100.864 332.76 100.414 332.76 99.874C332.76 99.31 332.646 98.86 332.418 98.524C332.202 98.188 331.866 97.942 331.41 97.786C330.954 97.63 330.372 97.552 329.664 97.552ZM341.635 99.172C342.463 99.172 343.171 99.352 343.759 99.712C344.359 100.072 344.815 100.582 345.127 101.242C345.451 101.89 345.613 102.652 345.613 103.528V104.482H339.007C339.031 105.574 339.307 106.408 339.835 106.984C340.375 107.548 341.125 107.83 342.085 107.83C342.697 107.83 343.237 107.776 343.705 107.668C344.185 107.548 344.677 107.38 345.181 107.164V108.55C344.689 108.766 344.203 108.922 343.723 109.018C343.243 109.126 342.673 109.18 342.013 109.18C341.101 109.18 340.291 108.994 339.583 108.622C338.887 108.25 338.341 107.698 337.945 106.966C337.561 106.222 337.369 105.316 337.369 104.248C337.369 103.192 337.543 102.286 337.891 101.53C338.251 100.774 338.749 100.192 339.385 99.784C340.033 99.376 340.783 99.172 341.635 99.172ZM341.617 100.468C340.861 100.468 340.261 100.714 339.817 101.206C339.385 101.686 339.127 102.358 339.043 103.222H343.957C343.957 102.67 343.873 102.19 343.705 101.782C343.537 101.374 343.279 101.056 342.931 100.828C342.595 100.588 342.157 100.468 341.617 100.468ZM353.433 99.172C354.585 99.172 355.455 99.454 356.043 100.018C356.631 100.57 356.925 101.47 356.925 102.718V109H355.359V102.826C355.359 102.046 355.185 101.464 354.837 101.08C354.489 100.696 353.943 100.504 353.199 100.504C352.131 100.504 351.393 100.804 350.985 101.404C350.577 102.004 350.373 102.868 350.373 103.996V109H348.789V99.352H350.067L350.301 100.666H350.391C350.607 100.33 350.871 100.054 351.183 99.838C351.507 99.61 351.861 99.442 352.245 99.334C352.629 99.226 353.025 99.172 353.433 99.172ZM363.858 107.884C364.098 107.884 364.344 107.866 364.596 107.83C364.848 107.782 365.052 107.734 365.208 107.686V108.892C365.04 108.976 364.8 109.042 364.488 109.09C364.176 109.15 363.876 109.18 363.588 109.18C363.084 109.18 362.616 109.096 362.184 108.928C361.764 108.748 361.422 108.442 361.158 108.01C360.894 107.578 360.762 106.972 360.762 106.192V100.576H359.394V99.82L360.78 99.19L361.41 97.138H362.346V99.352H365.136V100.576H362.346V106.156C362.346 106.744 362.484 107.182 362.76 107.47C363.048 107.746 363.414 107.884 363.858 107.884ZM378.667 109H371.485V96.148H378.667V97.57H373.105V101.584H378.343V102.988H373.105V107.578H378.667V109ZM385.645 99.19C386.821 99.19 387.691 99.448 388.255 99.964C388.819 100.48 389.101 101.302 389.101 102.43V109H387.949L387.643 107.632H387.571C387.295 107.98 387.007 108.274 386.707 108.514C386.419 108.742 386.083 108.91 385.699 109.018C385.327 109.126 384.871 109.18 384.331 109.18C383.755 109.18 383.233 109.078 382.765 108.874C382.309 108.67 381.949 108.358 381.685 107.938C381.421 107.506 381.289 106.966 381.289 106.318C381.289 105.358 381.667 104.62 382.423 104.104C383.179 103.576 384.343 103.288 385.915 103.24L387.553 103.186V102.61C387.553 101.806 387.379 101.248 387.031 100.936C386.683 100.624 386.191 100.468 385.555 100.468C385.051 100.468 384.571 100.546 384.115 100.702C383.659 100.846 383.233 101.014 382.837 101.206L382.351 100.018C382.771 99.79 383.269 99.598 383.845 99.442C384.421 99.274 385.021 99.19 385.645 99.19ZM386.113 104.338C384.913 104.386 384.079 104.578 383.611 104.914C383.155 105.25 382.927 105.724 382.927 106.336C382.927 106.876 383.089 107.272 383.413 107.524C383.749 107.776 384.175 107.902 384.691 107.902C385.507 107.902 386.185 107.68 386.725 107.236C387.265 106.78 387.535 106.084 387.535 105.148V104.284L386.113 104.338ZM399.083 106.336C399.083 106.96 398.927 107.482 398.615 107.902C398.303 108.322 397.859 108.64 397.283 108.856C396.707 109.072 396.023 109.18 395.231 109.18C394.559 109.18 393.977 109.126 393.485 109.018C393.005 108.91 392.579 108.76 392.207 108.568V107.128C392.591 107.32 393.053 107.5 393.593 107.668C394.145 107.824 394.703 107.902 395.267 107.902C396.071 107.902 396.653 107.776 397.013 107.524C397.373 107.26 397.553 106.912 397.553 106.48C397.553 106.24 397.487 106.024 397.355 105.832C397.223 105.64 396.983 105.448 396.635 105.256C396.299 105.064 395.813 104.848 395.177 104.608C394.553 104.368 394.019 104.128 393.575 103.888C393.131 103.648 392.789 103.36 392.549 103.024C392.309 102.688 392.189 102.256 392.189 101.728C392.189 100.912 392.519 100.282 393.179 99.838C393.851 99.394 394.727 99.172 395.807 99.172C396.395 99.172 396.941 99.232 397.445 99.352C397.961 99.46 398.441 99.616 398.885 99.82L398.345 101.08C398.081 100.96 397.799 100.858 397.499 100.774C397.211 100.678 396.917 100.606 396.617 100.558C396.317 100.498 396.011 100.468 395.699 100.468C395.051 100.468 394.553 100.576 394.205 100.792C393.869 100.996 393.701 101.278 393.701 101.638C393.701 101.902 393.779 102.13 393.935 102.322C394.091 102.502 394.349 102.682 394.709 102.862C395.081 103.03 395.573 103.234 396.185 103.474C396.797 103.702 397.319 103.936 397.751 104.176C398.183 104.416 398.513 104.71 398.741 105.058C398.969 105.394 399.083 105.82 399.083 106.336ZM403.718 99.352V109H402.134V99.352H403.718ZM402.944 95.734C403.184 95.734 403.394 95.818 403.574 95.986C403.766 96.142 403.862 96.394 403.862 96.742C403.862 97.078 403.766 97.33 403.574 97.498C403.394 97.666 403.184 97.75 402.944 97.75C402.68 97.75 402.458 97.666 402.278 97.498C402.098 97.33 402.008 97.078 402.008 96.742C402.008 96.394 402.098 96.142 402.278 95.986C402.458 95.818 402.68 95.734 402.944 95.734ZM409.079 109H407.495V95.32H409.079V109ZM411.344 99.352H413.036L415.124 104.842C415.244 105.166 415.352 105.478 415.448 105.778C415.556 106.078 415.652 106.372 415.736 106.66C415.82 106.936 415.886 107.206 415.934 107.47H416.006C416.078 107.17 416.192 106.78 416.348 106.3C416.504 105.808 416.666 105.316 416.834 104.824L418.796 99.352H420.506L416.348 110.332C416.12 110.932 415.85 111.454 415.538 111.898C415.238 112.354 414.866 112.702 414.422 112.942C413.99 113.194 413.462 113.32 412.838 113.32C412.55 113.32 412.298 113.302 412.082 113.266C411.866 113.242 411.68 113.212 411.524 113.176V111.916C411.656 111.94 411.812 111.964 411.992 111.988C412.184 112.012 412.382 112.024 412.586 112.024C412.958 112.024 413.276 111.952 413.54 111.808C413.816 111.676 414.05 111.478 414.242 111.214C414.434 110.962 414.596 110.662 414.728 110.314L415.232 109.036L411.344 99.352Z" fill="#000"/>
<path d="M235.9 60.5C233.367 60.5 231.433 61.05 230.1 62.15C228.767 63.25 228.1 64.9167 228.1 67.15V68.35H241.55V76H228.1V88H218.2V67.3C218.2 62.5333 219.683 58.85 222.65 56.25C225.617 53.6167 229.783 52.3 235.15 52.3C237.183 52.3 239.083 52.5 240.85 52.9C242.65 53.3 244.183 53.8667 245.45 54.6L242.55 62.2C240.617 61.0667 238.4 60.5 235.9 60.5ZM260.142 88.45C257.242 88.45 254.626 87.85 252.292 86.65C249.959 85.45 248.126 83.7833 246.792 81.65C245.492 79.5167 244.842 77.1 244.842 74.4C244.842 71.7333 245.492 69.3333 246.792 67.2C248.126 65.0667 249.942 63.4167 252.242 62.25C254.576 61.05 257.209 60.45 260.142 60.45C263.076 60.45 265.709 61.05 268.042 62.25C270.376 63.4167 272.192 65.0667 273.492 67.2C274.792 69.3 275.442 71.7 275.442 74.4C275.442 77.1 274.792 79.5167 273.492 81.65C272.192 83.7833 270.376 85.45 268.042 86.65C265.709 87.85 263.076 88.45 260.142 88.45ZM260.142 80.9C261.809 80.9 263.176 80.3333 264.242 79.2C265.309 78.0333 265.842 76.4333 265.842 74.4C265.842 72.4 265.309 70.8333 264.242 69.7C263.176 68.5667 261.809 68 260.142 68C258.476 68 257.109 68.5667 256.042 69.7C254.976 70.8333 254.442 72.4 254.442 74.4C254.442 76.4333 254.976 78.0333 256.042 79.2C257.109 80.3333 258.476 80.9 260.142 80.9ZM289.393 88.45C286.06 88.45 283.46 87.6 281.593 85.9C279.76 84.1667 278.843 81.7 278.843 78.5V50.9H288.343V78C288.343 79 288.593 79.7667 289.093 80.3C289.626 80.8333 290.36 81.1 291.293 81.1C292.06 81.1 292.776 80.9333 293.443 80.6L293.843 87.75C292.41 88.2167 290.926 88.45 289.393 88.45ZM309.363 88.45C306.463 88.45 303.846 87.85 301.513 86.65C299.18 85.45 297.346 83.7833 296.013 81.65C294.713 79.5167 294.063 77.1 294.063 74.4C294.063 71.7333 294.713 69.3333 296.013 67.2C297.346 65.0667 299.163 63.4167 301.463 62.25C303.796 61.05 306.43 60.45 309.363 60.45C312.296 60.45 314.93 61.05 317.263 62.25C319.596 63.4167 321.413 65.0667 322.713 67.2C324.013 69.3 324.663 71.7 324.663 74.4C324.663 77.1 324.013 79.5167 322.713 81.65C321.413 83.7833 319.596 85.45 317.263 86.65C314.93 87.85 312.296 88.45 309.363 88.45ZM309.363 80.9C311.03 80.9 312.396 80.3333 313.463 79.2C314.53 78.0333 315.063 76.4333 315.063 74.4C315.063 72.4 314.53 70.8333 313.463 69.7C312.396 68.5667 311.03 68 309.363 68C307.696 68 306.33 68.5667 305.263 69.7C304.196 70.8333 303.663 72.4 303.663 74.4C303.663 76.4333 304.196 78.0333 305.263 79.2C306.33 80.3333 307.696 80.9 309.363 80.9ZM357.364 78.7H351.964V88H342.064V53H358.064C361.231 53 363.981 53.5333 366.314 54.6C368.648 55.6333 370.448 57.1333 371.714 59.1C372.981 61.0333 373.614 63.3167 373.614 65.95C373.614 68.4833 373.014 70.7 371.814 72.6C370.648 74.4667 368.964 75.9333 366.764 77L374.314 88H363.714L357.364 78.7ZM363.614 65.95C363.614 64.3167 363.098 63.05 362.064 62.15C361.031 61.25 359.498 60.8 357.464 60.8H351.964V71.05H357.464C359.498 71.05 361.031 70.6167 362.064 69.75C363.098 68.85 363.614 67.5833 363.614 65.95ZM392.126 81.2C393.426 81.2 394.543 81.0167 395.476 80.65C396.443 80.2833 397.41 79.6833 398.376 78.85L403.326 84.05C400.76 86.9833 396.926 88.45 391.826 88.45C388.66 88.45 385.876 87.85 383.476 86.65C381.076 85.45 379.21 83.7833 377.876 81.65C376.576 79.5167 375.926 77.1 375.926 74.4C375.926 71.7333 376.576 69.35 377.876 67.25C379.176 65.1167 380.96 63.45 383.226 62.25C385.526 61.05 388.093 60.45 390.926 60.45C393.56 60.45 395.96 61 398.126 62.1C400.326 63.1667 402.076 64.75 403.376 66.85C404.676 68.9167 405.326 71.3833 405.326 74.25L385.976 77.95C387.01 80.1167 389.06 81.2 392.126 81.2ZM390.976 67.2C389.343 67.2 388.01 67.7167 386.976 68.75C385.943 69.75 385.36 71.2 385.226 73.1L396.226 70.95C395.893 69.8167 395.26 68.9167 394.326 68.25C393.393 67.55 392.276 67.2 390.976 67.2ZM426.356 60.45C429.723 60.45 432.423 61.45 434.456 63.45C436.523 65.45 437.556 68.4667 437.556 72.5V88H428.056V74.05C428.056 70.35 426.573 68.5 423.606 68.5C421.973 68.5 420.656 69.0333 419.656 70.1C418.69 71.1667 418.206 72.7667 418.206 74.9V88H408.706V60.9H417.756V63.85C418.823 62.75 420.09 61.9167 421.556 61.35C423.023 60.75 424.623 60.45 426.356 60.45ZM459.971 86.9C459.171 87.4 458.187 87.7833 457.021 88.05C455.887 88.3167 454.671 88.45 453.371 88.45C449.837 88.45 447.121 87.5833 445.221 85.85C443.354 84.1167 442.421 81.5333 442.421 78.1V54.85H451.921V61.9H458.071V69H451.921V78C451.921 79 452.171 79.7667 452.671 80.3C453.171 80.8333 453.854 81.1 454.721 81.1C455.821 81.1 456.787 80.8167 457.621 80.25L459.971 86.9ZM490.483 60.9V88H481.433V85.3C479.667 87.4 477 88.45 473.433 88.45C470.967 88.45 468.717 87.8833 466.683 86.75C464.683 85.5833 463.083 83.9333 461.883 81.8C460.717 79.6667 460.133 77.2 460.133 74.4C460.133 71.6 460.717 69.15 461.883 67.05C463.083 64.9167 464.683 63.2833 466.683 62.15C468.717 61.0167 470.967 60.45 473.433 60.45C476.633 60.45 479.15 61.3833 480.983 63.25V60.9H490.483ZM475.433 80.9C477.1 80.9 478.467 80.3333 479.533 79.2C480.6 78.0333 481.133 76.4333 481.133 74.4C481.133 72.4 480.6 70.8333 479.533 69.7C478.467 68.5667 477.1 68 475.433 68C473.767 68 472.4 68.5667 471.333 69.7C470.267 70.8333 469.733 72.4 469.733 74.4C469.733 76.4333 470.267 78.0333 471.333 79.2C472.4 80.3333 473.767 80.9 475.433 80.9ZM506.149 88.45C502.815 88.45 500.215 87.6 498.349 85.9C496.515 84.1667 495.599 81.7 495.599 78.5V50.9H505.099V78C505.099 79 505.349 79.7667 505.849 80.3C506.382 80.8333 507.115 81.1 508.049 81.1C508.815 81.1 509.532 80.9333 510.199 80.6L510.599 87.75C509.165 88.2167 507.682 88.45 506.149 88.45ZM522.857 88.45C520.59 88.45 518.357 88.2 516.157 87.7C513.957 87.1667 512.19 86.4833 510.857 85.65L513.707 79.15C514.94 79.9167 516.407 80.5333 518.107 81C519.807 81.4333 521.49 81.65 523.157 81.65C524.69 81.65 525.774 81.5 526.407 81.2C527.074 80.8667 527.407 80.4 527.407 79.8C527.407 79.2 527.007 78.7833 526.207 78.55C525.44 78.2833 524.207 78.0333 522.507 77.8C520.34 77.5333 518.49 77.1833 516.957 76.75C515.457 76.3167 514.157 75.5167 513.057 74.35C511.957 73.1833 511.407 71.55 511.407 69.45C511.407 67.7167 511.924 66.1833 512.957 64.85C513.99 63.4833 515.49 62.4167 517.457 61.65C519.457 60.85 521.84 60.45 524.607 60.45C526.574 60.45 528.524 60.65 530.457 61.05C532.39 61.45 534.007 62.0167 535.307 62.75L532.457 69.2C530.057 67.8667 527.457 67.2 524.657 67.2C523.157 67.2 522.057 67.3833 521.357 67.75C520.657 68.0833 520.307 68.5333 520.307 69.1C520.307 69.7333 520.69 70.1833 521.457 70.45C522.224 70.6833 523.49 70.9333 525.257 71.2C527.49 71.5333 529.34 71.9167 530.807 72.35C532.274 72.7833 533.54 73.5833 534.607 74.75C535.707 75.8833 536.257 77.4833 536.257 79.55C536.257 81.25 535.74 82.7833 534.707 84.15C533.674 85.4833 532.14 86.5333 530.107 87.3C528.107 88.0667 525.69 88.45 522.857 88.45Z" fill="#000"/>
</svg>
